<?xml version="1.0" encoding="UTF-8"?>
<svg xmlns="http://www.w3.org/2000/svg" id="a" width="865.76" height="682.89" viewBox="0 0 865.76 682.89">
  <g>
    <g>
      <rect x="151.81" y="54.03" width="320.67" height="408.12" rx="8.82" ry="8.82" fill="#002346"></rect>
      <path d="M463.66,462.65H160.63c-5.14,0-9.32-4.18-9.32-9.32V62.85c0-5.14,4.18-9.32,9.32-9.32H463.66c5.14,0,9.32,4.18,9.32,9.32V453.33c0,5.14-4.18,9.32-9.32,9.32ZM160.63,54.53c-4.59,0-8.32,3.73-8.32,8.32V453.33c0,4.59,3.73,8.32,8.32,8.32H463.66c4.59,0,8.32-3.73,8.32-8.32V62.85c0-4.59-3.73-8.32-8.32-8.32H160.63Z" fill="#0d2445"></path>
    </g>
    <rect x="167.71" y="72.59" width="289.75" height="374.55" fill="#e6e7e8"></rect>
    <g>
      <rect x="243.07" y="53.31" width="139.22" height="36.71" rx="4" ry="4" fill="#fff"></rect>
      <path d="M378.29,90.52H247.07c-2.48,0-4.5-2.02-4.5-4.5v-28.71c0-2.48,2.02-4.5,4.5-4.5h131.22c2.48,0,4.5,2.02,4.5,4.5v28.71c0,2.48-2.02,4.5-4.5,4.5ZM247.07,53.81c-1.93,0-3.5,1.57-3.5,3.5v28.71c0,1.93,1.57,3.5,3.5,3.5h131.22c1.93,0,3.5-1.57,3.5-3.5v-28.71c0-1.93-1.57-3.5-3.5-3.5,0,0-131.22,0-131.22,0Z" fill="#002346"></path>
    </g>
    <g>
      <path d="M354.28,22.59h-83.48c-3.15,0-5.71,2.56-5.71,5.71v29.63h4.62V30.88c0-1.73,1.4-3.13,3.13-3.13h79.4c1.72,0,3.12,1.41,3.12,3.13v27.05h4.64V28.3c0-3.15-2.56-5.71-5.71-5.71h-.01Z" fill="#fff"></path>
      <path d="M360.5,58.43h-5.64V30.88c0-1.45-1.18-2.63-2.62-2.63h-79.4c-1.45,0-2.63,1.18-2.63,2.63v27.55h-5.62V28.3c0-3.42,2.79-6.21,6.21-6.21h83.49c3.42,0,6.21,2.79,6.21,6.21v30.13h0Zm-4.64-1h3.64V28.3c0-2.87-2.34-5.21-5.21-5.21h-83.49c-2.87,0-5.21,2.34-5.21,5.21v29.13h3.62V30.88c0-2,1.63-3.63,3.63-3.63h79.4c2,0,3.62,1.63,3.62,3.63v26.55h0Z" fill="#002346"></path>
    </g>
    <g>
      <rect x="56.64" y="101.41" width="121.57" height="88.81" rx="5.44" ry="5.44" fill="#f69074"></rect>
      <path d="M172.77,190.72H62.08c-3.28,0-5.94-2.67-5.94-5.94V106.85c0-3.28,2.66-5.94,5.94-5.94h110.69c3.28,0,5.94,2.66,5.94,5.94v77.93c0,3.28-2.66,5.94-5.94,5.94ZM62.08,101.91c-2.72,0-4.94,2.22-4.94,4.94v77.93c0,2.72,2.22,4.94,4.94,4.94h110.69c2.72,0,4.94-2.22,4.94-4.94V106.85c0-2.72-2.22-4.94-4.94-4.94,0,0-110.69,0-110.69,0Z" fill="#002346"></path>
    </g>
    <g>
      <rect x="70.43" y="127.71" width="12.93" height="46.56" fill="#fff"></rect>
      <path d="M83.86,174.77h-13.93v-47.56h13.93v47.56Zm-12.93-1h11.93v-45.56h-11.93v45.56Z" fill="#002346"></path>
    </g>
    <g>
      <rect x="90.69" y="154.87" width="12.93" height="19.4" fill="#fff"></rect>
      <path d="M104.12,174.77h-13.93v-20.4h13.93v20.4Zm-12.93-1h11.93v-18.4h-11.93v18.4Z" fill="#002346"></path>
    </g>
    <g>
      <rect x="110.96" y="142.36" width="12.93" height="31.9" fill="#fff"></rect>
      <path d="M124.39,174.76h-13.93v-32.9h13.93v32.9h0Zm-12.93-1h11.93v-30.9h-11.93v30.9Z" fill="#002346"></path>
    </g>
    <g>
      <rect x="131.39" y="148.83" width="12.93" height="25.44" fill="#fff"></rect>
      <path d="M144.82,174.77h-13.93v-26.44h13.93v26.44Zm-12.93-1h11.93v-24.44h-11.93v24.44Z" fill="#002346"></path>
    </g>
    <g>
      <rect x="151.81" y="116.93" width="12.93" height="57.34" fill="#fff"></rect>
      <path d="M165.24,174.77h-13.93v-58.34h13.93v58.34h0Zm-12.93-1h11.93v-56.34h-11.93v56.34Z" fill="#002346"></path>
    </g>
    <g>
      <rect x="47.65" y="302.39" width="120.07" height="159.77" rx="8.37" ry="8.37" fill="#f69074"></rect>
      <path d="M159.35,462.66H56.02c-4.89,0-8.87-3.98-8.87-8.87v-143.03c0-4.89,3.98-8.87,8.87-8.87h103.33c4.89,0,8.87,3.98,8.87,8.87v143.03c0,4.89-3.98,8.87-8.87,8.87ZM56.02,302.89c-4.34,0-7.87,3.53-7.87,7.87v143.03c0,4.34,3.53,7.87,7.87,7.87h103.33c4.34,0,7.87-3.53,7.87-7.87v-143.03c0-4.34-3.53-7.87-7.87-7.87H56.02Z" fill="#002346"></path>
    </g>
    <g>
      <path d="M156.44,318.6v27.45c0,2.07-1.66,3.74-3.73,3.75H63.17c-2.07,0-3.75-1.68-3.76-3.75v-27.45c0-2.07,1.69-3.75,3.76-3.76h89.83c1.95,.16,3.45,1.8,3.44,3.76Z" fill="#fff"></path>
      <path d="M63.17,350.3c-2.34,0-4.25-1.91-4.26-4.25v-27.45c0-2.34,1.92-4.25,4.26-4.26h89.83c2.24,.18,3.95,2.06,3.94,4.26v27.45c0,1.13-.44,2.2-1.23,3-.8,.8-1.86,1.25-2.99,1.25H63.17Zm89.79-34.96H63.17c-1.79,0-3.26,1.47-3.26,3.26v27.45c0,1.79,1.47,3.25,3.26,3.25h89.52c.88,0,1.7-.34,2.31-.96,.61-.61,.95-1.43,.94-2.29v-27.45c0-1.69-1.3-3.12-2.98-3.26h0Z" fill="#002346"></path>
    </g>
    <g>
      <rect x="59.41" y="360.53" width="21.28" height="19.57" rx="2.71" ry="2.71" fill="#fff"></rect>
      <path d="M77.98,380.6h-15.86c-1.77,0-3.21-1.44-3.21-3.21v-14.15c0-1.77,1.44-3.21,3.21-3.21h15.86c1.77,0,3.21,1.44,3.21,3.21v14.15c0,1.77-1.44,3.21-3.21,3.21Zm-15.86-19.57c-1.22,0-2.21,.99-2.21,2.21v14.15c0,1.22,.99,2.21,2.21,2.21h15.86c1.22,0,2.21-.99,2.21-2.21v-14.15c0-1.22-.99-2.21-2.21-2.21h-15.86Z" fill="#002346"></path>
    </g>
    <g>
      <rect x="84.28" y="360.53" width="21.28" height="19.57" rx="2.71" ry="2.71" fill="#fff"></rect>
      <path d="M102.85,380.6h-15.86c-1.77,0-3.21-1.44-3.21-3.21v-14.15c0-1.77,1.44-3.21,3.21-3.21h15.86c1.77,0,3.21,1.44,3.21,3.21v14.15c0,1.77-1.44,3.21-3.21,3.21Zm-15.86-19.57c-1.22,0-2.21,.99-2.21,2.21v14.15c0,1.22,.99,2.21,2.21,2.21h15.86c1.22,0,2.21-.99,2.21-2.21v-14.15c0-1.22-.99-2.21-2.21-2.21h-15.86Z" fill="#002346"></path>
    </g>
    <g>
      <rect x="109.16" y="360.53" width="21.28" height="19.57" rx="2.71" ry="2.71" fill="#fff"></rect>
      <path d="M127.73,380.6h-15.86c-1.77,0-3.21-1.44-3.21-3.21v-14.15c0-1.77,1.44-3.21,3.21-3.21h15.86c1.77,0,3.21,1.44,3.21,3.21v14.15c0,1.77-1.44,3.21-3.21,3.21Zm-15.86-19.57c-1.22,0-2.21,.99-2.21,2.21v14.15c0,1.22,.99,2.21,2.21,2.21h15.86c1.22,0,2.21-.99,2.21-2.21v-14.15c0-1.22-.99-2.21-2.21-2.21h-15.86Z" fill="#002346"></path>
    </g>
    <g>
      <rect x="134.03" y="360.53" width="21.28" height="19.57" rx="2.71" ry="2.71" fill="#fff"></rect>
      <path d="M152.6,380.6h-15.86c-1.77,0-3.21-1.44-3.21-3.21v-14.15c0-1.77,1.44-3.21,3.21-3.21h15.86c1.77,0,3.21,1.44,3.21,3.21v14.15c0,1.77-1.44,3.21-3.21,3.21Zm-15.86-19.57c-1.22,0-2.21,.99-2.21,2.21v14.15c0,1.22,.99,2.21,2.21,2.21h15.86c1.22,0,2.21-.99,2.21-2.21v-14.15c0-1.22-.99-2.21-2.21-2.21h-15.86Z" fill="#002346"></path>
    </g>
    <g>
      <rect x="59.73" y="385.1" width="21.28" height="19.57" rx="2.71" ry="2.71" fill="#fff"></rect>
      <path d="M78.3,405.17h-15.86c-1.77,0-3.21-1.44-3.21-3.21v-14.15c0-1.77,1.44-3.21,3.21-3.21h15.86c1.77,0,3.21,1.44,3.21,3.21v14.15c0,1.77-1.44,3.21-3.21,3.21Zm-15.86-19.57c-1.22,0-2.21,.99-2.21,2.21v14.15c0,1.22,.99,2.21,2.21,2.21h15.86c1.22,0,2.21-.99,2.21-2.21v-14.15c0-1.22-.99-2.21-2.21-2.21h-15.86Z" fill="#002346"></path>
    </g>
    <g>
      <rect x="84.61" y="385.1" width="21.28" height="19.57" rx="2.71" ry="2.71" fill="#fff"></rect>
      <path d="M103.18,405.17h-15.86c-1.77,0-3.21-1.44-3.21-3.21v-14.15c0-1.77,1.44-3.21,3.21-3.21h15.86c1.77,0,3.21,1.44,3.21,3.21v14.15c0,1.77-1.44,3.21-3.21,3.21Zm-15.86-19.57c-1.22,0-2.21,.99-2.21,2.21v14.15c0,1.22,.99,2.21,2.21,2.21h15.86c1.22,0,2.21-.99,2.21-2.21v-14.15c0-1.22-.99-2.21-2.21-2.21h-15.86Z" fill="#002346"></path>
    </g>
    <g>
      <rect x="109.48" y="385.1" width="21.28" height="19.57" rx="2.71" ry="2.71" fill="#fff"></rect>
      <path d="M128.05,405.17h-15.86c-1.77,0-3.21-1.44-3.21-3.21v-14.15c0-1.77,1.44-3.21,3.21-3.21h15.86c1.77,0,3.21,1.44,3.21,3.21v14.15c0,1.77-1.44,3.21-3.21,3.21Zm-15.86-19.57c-1.22,0-2.21,.99-2.21,2.21v14.15c0,1.22,.99,2.21,2.21,2.21h15.86c1.22,0,2.21-.99,2.21-2.21v-14.15c0-1.22-.99-2.21-2.21-2.21h-15.86Z" fill="#002346"></path>
    </g>
    <g>
      <rect x="134.35" y="385.1" width="21.28" height="19.57" rx="2.71" ry="2.71" fill="#fff"></rect>
      <path d="M152.92,405.17h-15.86c-1.77,0-3.21-1.44-3.21-3.21v-14.15c0-1.77,1.44-3.21,3.21-3.21h15.86c1.77,0,3.21,1.44,3.21,3.21v14.15c0,1.77-1.44,3.21-3.21,3.21Zm-15.86-19.57c-1.22,0-2.21,.99-2.21,2.21v14.15c0,1.22,.99,2.21,2.21,2.21h15.86c1.22,0,2.21-.99,2.21-2.21v-14.15c0-1.22-.99-2.21-2.21-2.21h-15.86Z" fill="#002346"></path>
    </g>
    <g>
      <rect x="59.73" y="409.66" width="21.28" height="19.57" rx="2.71" ry="2.71" fill="#fff"></rect>
      <path d="M78.3,429.73h-15.86c-1.77,0-3.21-1.44-3.21-3.21v-14.15c0-1.77,1.44-3.21,3.21-3.21h15.86c1.77,0,3.21,1.44,3.21,3.21v14.15c0,1.77-1.44,3.21-3.21,3.21Zm-15.86-19.57c-1.22,0-2.21,.99-2.21,2.21v14.15c0,1.22,.99,2.21,2.21,2.21h15.86c1.22,0,2.21-.99,2.21-2.21v-14.15c0-1.22-.99-2.21-2.21-2.21h-15.86Z" fill="#002346"></path>
    </g>
    <g>
      <rect x="84.61" y="409.66" width="21.28" height="19.57" rx="2.71" ry="2.71" fill="#fff"></rect>
      <path d="M103.18,429.73h-15.86c-1.77,0-3.21-1.44-3.21-3.21v-14.15c0-1.77,1.44-3.21,3.21-3.21h15.86c1.77,0,3.21,1.44,3.21,3.21v14.15c0,1.77-1.44,3.21-3.21,3.21Zm-15.86-19.57c-1.22,0-2.21,.99-2.21,2.21v14.15c0,1.22,.99,2.21,2.21,2.21h15.86c1.22,0,2.21-.99,2.21-2.21v-14.15c0-1.22-.99-2.21-2.21-2.21h-15.86Z" fill="#002346"></path>
    </g>
    <g>
      <rect x="109.48" y="409.66" width="21.28" height="19.57" rx="2.71" ry="2.71" fill="#fff"></rect>
      <path d="M128.05,429.73h-15.86c-1.77,0-3.21-1.44-3.21-3.21v-14.15c0-1.77,1.44-3.21,3.21-3.21h15.86c1.77,0,3.21,1.44,3.21,3.21v14.15c0,1.77-1.44,3.21-3.21,3.21Zm-15.86-19.57c-1.22,0-2.21,.99-2.21,2.21v14.15c0,1.22,.99,2.21,2.21,2.21h15.86c1.22,0,2.21-.99,2.21-2.21v-14.15c0-1.22-.99-2.21-2.21-2.21h-15.86Z" fill="#002346"></path>
    </g>
    <g>
      <rect x="134.35" y="409.66" width="21.28" height="44.14" rx="2.71" ry="2.71" fill="#fff"></rect>
      <path d="M152.92,454.3h-15.86c-1.77,0-3.21-1.44-3.21-3.21v-38.72c0-1.77,1.44-3.21,3.21-3.21h15.86c1.77,0,3.21,1.44,3.21,3.21v38.72c0,1.77-1.44,3.21-3.21,3.21Zm-15.86-44.14c-1.22,0-2.21,.99-2.21,2.21v38.72c0,1.22,.99,2.21,2.21,2.21h15.86c1.22,0,2.21-.99,2.21-2.21v-38.72c0-1.22-.99-2.21-2.21-2.21h-15.86Z" fill="#002346"></path>
    </g>
    <g>
      <rect x="59.73" y="434.23" width="21.28" height="19.57" rx="2.71" ry="2.71" fill="#fff"></rect>
      <path d="M78.3,454.3h-15.86c-1.77,0-3.21-1.44-3.21-3.21v-14.15c0-1.77,1.44-3.21,3.21-3.21h15.86c1.77,0,3.21,1.44,3.21,3.21v14.15c0,1.77-1.44,3.21-3.21,3.21Zm-15.86-19.57c-1.22,0-2.21,.99-2.21,2.21v14.15c0,1.22,.99,2.21,2.21,2.21h15.86c1.22,0,2.21-.99,2.21-2.21v-14.15c0-1.22-.99-2.21-2.21-2.21h-15.86Z" fill="#002346"></path>
    </g>
    <g>
      <rect x="84.61" y="434.23" width="21.28" height="19.57" rx="2.71" ry="2.71" fill="#fff"></rect>
      <path d="M103.18,454.3h-15.86c-1.77,0-3.21-1.44-3.21-3.21v-14.15c0-1.77,1.44-3.21,3.21-3.21h15.86c1.77,0,3.21,1.44,3.21,3.21v14.15c0,1.77-1.44,3.21-3.21,3.21Zm-15.86-19.57c-1.22,0-2.21,.99-2.21,2.21v14.15c0,1.22,.99,2.21,2.21,2.21h15.86c1.22,0,2.21-.99,2.21-2.21v-14.15c0-1.22-.99-2.21-2.21-2.21h-15.86Z" fill="#002346"></path>
    </g>
    <g>
      <rect x="109.48" y="434.23" width="21.28" height="19.57" rx="2.71" ry="2.71" fill="#fff"></rect>
      <path d="M128.05,454.3h-15.86c-1.77,0-3.21-1.44-3.21-3.21v-14.15c0-1.77,1.44-3.21,3.21-3.21h15.86c1.77,0,3.21,1.44,3.21,3.21v14.15c0,1.77-1.44,3.21-3.21,3.21Zm-15.86-19.57c-1.22,0-2.21,.99-2.21,2.21v14.15c0,1.22,.99,2.21,2.21,2.21h15.86c1.22,0,2.21-.99,2.21-2.21v-14.15c0-1.22-.99-2.21-2.21-2.21h-15.86Z" fill="#002346"></path>
    </g>
    <g>
      <circle cx="229.18" cy="361.51" r="44.35" fill="#fff"></circle>
      <path d="M229.18,406.36c-24.73,0-44.85-20.12-44.85-44.85s20.12-44.85,44.85-44.85,44.85,20.12,44.85,44.85-20.12,44.85-44.85,44.85Zm0-88.7c-24.18,0-43.85,19.67-43.85,43.85s19.67,43.85,43.85,43.85,43.85-19.67,43.85-43.85-19.67-43.85-43.85-43.85Z" fill="#002346"></path>
    </g>
    <g>
      <rect x="290.29" y="324.77" width="77.77" height="21.72" rx="3.4" ry="3.4" fill="#fff"></rect>
      <path d="M364.66,346.99h-70.97c-2.15,0-3.9-1.75-3.9-3.9v-14.92c0-2.15,1.75-3.9,3.9-3.9h70.97c2.15,0,3.9,1.75,3.9,3.9v14.92c0,2.15-1.75,3.9-3.9,3.9Zm-70.97-21.72c-1.6,0-2.9,1.3-2.9,2.9v14.92c0,1.6,1.3,2.9,2.9,2.9h70.97c1.6,0,2.9-1.3,2.9-2.9v-14.92c0-1.6-1.3-2.9-2.9-2.9h-70.97Z" fill="#002346"></path>
    </g>
    <g>
      <rect x="290.29" y="357.11" width="150.14" height="5.88" fill="#fff"></rect>
      <path d="M440.93,363.49h-151.14v-6.88h151.14v6.88Zm-150.14-1h149.14v-4.88h-149.14v4.88Z" fill="#002346"></path>
    </g>
    <g>
      <rect x="290.29" y="368.86" width="150.14" height="5.88" fill="#fff"></rect>
      <path d="M440.93,375.24h-151.14v-6.88h151.14v6.88Zm-150.14-1h149.14v-4.88h-149.14v4.88Z" fill="#002346"></path>
    </g>
    <g>
      <rect x="290.29" y="382.23" width="150.14" height="5.88" fill="#fff"></rect>
      <path d="M440.93,388.61h-151.14v-6.88h151.14v6.88Zm-150.14-1h149.14v-4.88h-149.14v4.88Z" fill="#002346"></path>
    </g>
    <g>
      <rect x="290.29" y="393.45" width="25.24" height="5.88" fill="#fff"></rect>
      <path d="M316.03,399.83h-26.24v-6.88h26.24v6.88Zm-25.24-1h24.24v-4.88h-24.24v4.88Z" fill="#002346"></path>
    </g>
    <g>
      <rect x="332.37" y="394.67" width="18.85" height="5.88" fill="#fff"></rect>
      <path d="M351.72,401.05h-19.85v-6.88h19.85v6.88Zm-18.85-1h17.85v-4.88h-17.85v4.88Z" fill="#002346"></path>
    </g>
    <g>
      <rect x="365.36" y="394.67" width="25.62" height="5.88" fill="#fff"></rect>
      <path d="M391.48,401.05h-26.62v-6.88h26.62v6.88Zm-25.62-1h24.62v-4.88h-24.62v4.88Z" fill="#002346"></path>
    </g>
    <g opacity=".22">
      <polygon points="63.17 349.8 84.28 314.84 105.56 314.84 84.28 349.8 63.17 349.8" fill="#f69074"></polygon>
    </g>
    <g opacity=".22">
      <polygon points="91.95 349.8 112.55 314.84 117.52 314.84 97.63 349.8 91.95 349.8" fill="#f69074"></polygon>
    </g>
    <g opacity=".22">
      <polygon points="110.65 349.8 133.08 314.84 141.66 314.84 119.8 349.8 110.65 349.8" fill="#f69074"></polygon>
    </g>
    <g opacity=".22">
      <path d="M156.44,318.6v5.26l-16.68,25.94h-9.33l22.57-34.95c1.95,.16,3.45,1.79,3.44,3.75Z" fill="#f69074"></path>
    </g>
    <path d="M270.27,222.65c-9.88,9.86-15.43,23.26-15.41,37.22h-61.86c-.04-30.37,12.03-59.5,33.53-80.94l43.74,43.72Z" fill="#f69074"></path>
    <path d="M254.86,261.3h-61.86c-.79,0-1.43-.64-1.43-1.43-.09-30.76,12.14-60.27,33.95-81.95,.55-.55,1.45-.55,2,0l43.72,43.72c.55,.55,.55,1.45,0,2-9.63,9.58-15.03,22.62-15,36.21,.01,.78-.6,1.42-1.38,1.45h0Zm-60.41-2.82h59c.31-13.36,5.59-26.12,14.82-35.78l-41.72-41.72c-20.31,20.72-31.81,48.49-32.1,77.5h0Z" fill="#002346"></path>
    <path d="M307.49,145.4v61.84c-13.96-.02-27.36,5.53-37.22,15.41l-43.72-43.72c21.44-21.5,50.57-33.57,80.94-33.53Z" fill="#7cd295"></path>
    <path d="M270.27,224.08c-.38,0-.73-.15-1-.42l-43.72-43.72c-.55-.55-.55-1.45,0-2,21.7-21.82,51.23-34.05,82-33.95,.79,0,1.43,.64,1.43,1.43v61.84c0,.78-.64,1.42-1.42,1.42h-.01c-13.59-.03-26.63,5.37-36.21,15-.28,.28-.67,.42-1.07,.4h0Zm-41.7-45.15l41.71,41.72c9.67-9.22,22.42-14.5,35.78-14.82v-59c-29.01,.29-56.78,11.79-77.49,32.1h0Z" fill="#002346"></path>
    <path d="M388.44,178.93l-43.73,43.72c-9.86-9.88-23.26-15.43-37.22-15.41v-61.84c30.37-.04,59.5,12.03,80.95,33.53Z" fill="#f1f2f2"></path>
    <path d="M344.71,224.08c-.38,0-.73-.15-1-.42-9.58-9.63-22.62-15.03-36.21-15-.78,0-1.42-.63-1.43-1.41h0v-61.85c0-.79,.64-1.43,1.43-1.43,30.77-.09,60.3,12.13,82,33.95,.54,.56,.54,1.44,0,2l-43.73,43.72c-.28,.29-.66,.45-1.06,.44h0Zm-35.79-18.25c13.36,.31,26.11,5.6,35.78,14.82l41.71-41.72c-20.71-20.31-48.48-31.81-77.49-32.1v59h0Z" fill="#002346"></path>
    <path d="M422,259.87h-61.87c.02-13.96-5.53-27.36-15.42-37.22l43.73-43.72c21.51,21.44,33.59,50.57,33.56,80.94Z" fill="#fbe493"></path>
    <path d="M422,261.3h-61.87c-.79,0-1.43-.64-1.43-1.43,.03-13.59-5.37-26.63-15-36.21-.54-.56-.54-1.44,0-2l43.73-43.72c.55-.55,1.45-.55,2,0,21.81,21.69,34.03,51.2,33.95,81.95-.01,.76-.62,1.38-1.38,1.41h0Zm-60.46-2.82h59c-.28-29.01-11.79-56.78-32.1-77.5l-41.71,41.72c9.21,9.67,14.5,22.43,14.81,35.78Z" fill="#002346"></path>
    <path d="M201.75,133.31c-1.36-.72-2.5-1.8-3.29-3.12-1.59-2.79-1.59-6.21,0-9,.79-1.32,1.93-2.4,3.29-3.12,1.45-.76,3.06-1.15,4.7-1.12,1.37-.02,2.73,.24,4,.77,1.16,.5,2.19,1.26,3,2.23l-2.52,2.32c-1.04-1.28-2.6-2.02-4.25-2-.98-.02-1.95,.22-2.81,.69-.81,.44-1.48,1.11-1.92,1.92-.93,1.75-.93,3.86,0,5.61,.45,.81,1.11,1.47,1.92,1.92,.86,.47,1.83,.71,2.81,.69,1.65,.02,3.22-.72,4.25-2l2.52,2.33c-.8,.98-1.83,1.75-3,2.24-1.26,.54-2.63,.8-4,.78-1.64,.02-3.25-.37-4.7-1.14Z" fill="#002346"></path>
    <path d="M229.26,134.15l-3.26-4.67h-3.6v4.72h-3.92v-16.98h7.33c1.34-.03,2.67,.22,3.91,.75,2.16,.9,3.54,3.05,3.44,5.39,.1,2.34-1.3,4.49-3.48,5.35l3.8,5.44h-4.22Zm-1-13c-.78-.56-1.73-.83-2.69-.76h-3.19v5.9h3.19c.96,.06,1.91-.21,2.69-.77,1.21-1.18,1.23-3.11,.06-4.31-.02-.02-.04-.04-.06-.06Z" fill="#002346"></path>
    <path d="M251.78,131v3.15h-13.11v-16.93h12.79v3.14h-8.9v3.68h7.86v3h-7.86v3.91l9.22,.05Z" fill="#002346"></path>
    <path d="M257.31,117.22h7.69c1.69-.03,3.36,.33,4.88,1.05,1.36,.67,2.5,1.71,3.29,3,1.57,2.76,1.57,6.14,0,8.9-.79,1.29-1.93,2.33-3.29,3-1.53,.71-3.2,1.05-4.88,1h-7.69v-16.95Zm7.5,13.71c1.48,.07,2.93-.43,4.05-1.41,2.02-2.16,2.02-5.51,0-7.67-1.12-.98-2.57-1.48-4.05-1.41h-3.58v10.49h3.58Z" fill="#002346"></path>
    <path d="M279.71,117.22h3.92v16.93h-3.92s0-16.93,0-16.93Z" fill="#002346"></path>
    <path d="M293.57,120.41h-5.42v-3.19h14.75v3.19h-5.42v13.74h-3.91v-13.74h0Z" fill="#002346"></path>
    <path d="M318.37,133.89c-1.08-.28-2.1-.76-3-1.41l1.33-3c.78,.56,1.66,1,2.58,1.28,.97,.31,1.98,.48,3,.48,.85,.06,1.7-.11,2.47-.49,.49-.26,.8-.77,.8-1.32,0-.39-.17-.76-.47-1-.36-.29-.77-.51-1.21-.64-.5-.17-1.16-.34-2-.54-1.08-.24-2.13-.55-3.17-.92-.82-.3-1.54-.81-2.11-1.47-.62-.76-.94-1.73-.89-2.71,0-.95,.27-1.88,.8-2.67,.6-.85,1.44-1.51,2.41-1.9,1.25-.5,2.59-.74,3.93-.7,1.07,0,2.13,.13,3.17,.39,.96,.22,1.87,.6,2.71,1.11l-1.21,3c-1.42-.84-3.04-1.3-4.7-1.33-.84-.06-1.69,.13-2.43,.53-.49,.3-.78,.84-.78,1.41s.36,1.1,.91,1.29c.89,.37,1.81,.65,2.76,.84,1.07,.24,2.13,.54,3.17,.91,.82,.3,1.55,.8,2.12,1.46,.62,.75,.93,1.71,.88,2.68,0,.95-.28,1.87-.81,2.65-.61,.85-1.45,1.51-2.43,1.9-1.25,.5-2.59,.73-3.94,.7-1.32,0-2.63-.17-3.89-.53h0Z" fill="#002346"></path>
    <path d="M338,133.31c-1.36-.71-2.5-1.8-3.29-3.12-1.59-2.79-1.59-6.21,0-9,.79-1.32,1.93-2.41,3.29-3.12,1.45-.76,3.06-1.15,4.7-1.12,1.37-.02,2.73,.24,4,.77,1.16,.5,2.19,1.26,3,2.23l-2.51,2.32c-1.04-1.28-2.61-2.02-4.26-2-.98-.02-1.94,.22-2.8,.69-.81,.44-1.48,1.11-1.93,1.92-.91,1.76-.91,3.85,0,5.61,.45,.81,1.12,1.48,1.93,1.92,.86,.47,1.82,.71,2.8,.69,1.65,.02,3.22-.71,4.26-2l2.51,2.33c-.8,.98-1.83,1.75-3,2.24-1.27,.53-2.63,.8-4,.78-1.64,.02-3.25-.37-4.7-1.14Z" fill="#002346"></path>
    <path d="M357.76,133.3c-1.37-.72-2.51-1.8-3.31-3.13-2.48-4.08-1.17-9.4,2.91-11.88,.13-.08,.26-.16,.4-.23,2.99-1.51,6.51-1.51,9.5,0,1.37,.73,2.51,1.82,3.31,3.14,1.62,2.78,1.62,6.22,0,9-.8,1.32-1.95,2.4-3.31,3.13-2.98,1.52-6.52,1.52-9.5,0v-.03Zm7.46-2.89c.8-.45,1.46-1.12,1.9-1.92,.93-1.75,.93-3.86,0-5.61-.44-.81-1.1-1.47-1.9-1.92-1.69-.92-3.72-.92-5.41,0-.8,.45-1.46,1.11-1.9,1.92-.93,1.75-.93,3.86,0,5.61,.44,.8,1.1,1.47,1.9,1.92,1.69,.92,3.72,.92,5.41,0Z" fill="#002346"></path>
    <path d="M387.93,134.15l-3.26-4.67h-3.6v4.72h-3.92v-16.98h7.32c1.34-.03,2.68,.22,3.91,.75,1.04,.44,1.93,1.18,2.55,2.13,.62,.97,.93,2.11,.9,3.26,.03,1.15-.28,2.28-.91,3.25-.63,.94-1.53,1.67-2.58,2.1l3.8,5.44h-4.21Zm-1-13c-.78-.56-1.73-.83-2.68-.76h-3.19v5.9h3.19c.96,.06,1.9-.21,2.68-.77,1.21-1.18,1.23-3.11,.06-4.31-.02-.02-.04-.04-.06-.06Z" fill="#002346"></path>
    <path d="M410.45,131v3.15h-13.11v-16.93h12.79v3.14h-8.9v3.68h7.86v3h-7.86v3.91l9.22,.05h0Z" fill="#002346"></path>
    <path d="M375.75,272.87h2.17v4.16c-.58,.44-1.23,.78-1.93,1-.72,.22-1.46,.33-2.21,.34-1,.02-1.98-.22-2.87-.68-.83-.44-1.52-1.09-2-1.89-.96-1.69-.96-3.77,0-5.46,.48-.8,1.17-1.45,2-1.88,.89-.46,1.89-.7,2.9-.68,.84-.01,1.66,.14,2.44,.45,.71,.28,1.35,.73,1.85,1.31l-1.52,1.41c-.68-.75-1.64-1.17-2.65-1.16-.61-.01-1.2,.13-1.74,.41-.5,.27-.91,.67-1.19,1.16-.29,.52-.43,1.11-.42,1.71-.01,.59,.13,1.18,.42,1.7,.28,.49,.69,.89,1.18,1.16,.53,.29,1.12,.43,1.72,.42,.64,0,1.27-.14,1.84-.44v-3.04h0Z" fill="#002346"></path>
    <path d="M382.2,277.64c-.83-.43-1.52-1.09-2-1.9-.96-1.68-.96-3.74,0-5.42,.48-.81,1.17-1.47,2-1.9,1.81-.91,3.93-.91,5.74,0,2.55,1.36,3.5,4.53,2.14,7.08-.49,.91-1.23,1.65-2.14,2.14-1.8,.92-3.94,.92-5.74,0Zm4.51-1.75c.48-.27,.88-.67,1.15-1.16,.56-1.06,.56-2.34,0-3.4-.27-.48-.67-.89-1.15-1.16-1.02-.56-2.26-.56-3.28,0-.48,.27-.88,.68-1.15,1.16-.55,1.07-.55,2.33,0,3.4,.27,.49,.67,.89,1.15,1.16,1.02,.56,2.26,.56,3.28,0Z" fill="#002346"></path>
    <path d="M394.54,277.64c-.83-.44-1.52-1.09-2-1.9-.96-1.68-.96-3.74,0-5.42,.48-.81,1.17-1.46,2-1.9,1.81-.91,3.94-.91,5.75,0,.82,.44,1.52,1.1,2,1.9,.97,1.68,.97,3.74,0,5.42-.48,.8-1.18,1.46-2,1.9-1.81,.92-3.94,.92-5.75,0Zm4.52-1.75c.48-.27,.88-.68,1.15-1.16,.55-1.07,.55-2.33,0-3.4-.27-.48-.67-.88-1.15-1.16-1.02-.56-2.26-.56-3.28,0-.48,.27-.88,.68-1.15,1.16-.56,1.06-.56,2.34,0,3.4,.27,.49,.67,.89,1.15,1.16,1.02,.56,2.26,.56,3.28,0Z" fill="#002346"></path>
    <path d="M404.81,267.91h4.65c1.04-.03,2.07,.19,3,.64,.82,.39,1.52,1.02,2,1.79,.95,1.67,.95,3.71,0,5.38-.48,.77-1.18,1.4-2,1.79-.93,.45-1.96,.67-3,.64h-4.65v-10.24h0Zm4.53,8.3c.9,.04,1.78-.26,2.45-.86,1.22-1.3,1.22-3.34,0-4.64-.67-.59-1.55-.9-2.45-.85h-2.16v6.35h2.16Z" fill="#002346"></path>
    <g>
      <path d="M304.64,235.93l76-12.76c2-.28,3.85,1.12,4.13,3.12,.23,1.64-.68,3.24-2.21,3.88l-72,27.63c-5.88,2.26-12.47-.68-14.73-6.56s.68-12.47,6.56-14.73c.73-.26,1.48-.45,2.25-.58Z" fill="#fff"></path>
      <path d="M306.47,259.06c-1.65,0-3.29-.35-4.84-1.04-2.9-1.29-5.13-3.64-6.27-6.61-1.14-2.97-1.05-6.2,.24-9.11,1.29-2.9,3.64-5.13,6.61-6.27,.77-.27,1.55-.48,2.35-.61l76-12.76c2.29-.32,4.39,1.27,4.71,3.55,.26,1.87-.77,3.68-2.51,4.41l-72.01,27.64c-1.39,.53-2.83,.8-4.27,.8h0Zm74.68-35.43c-.14,0-.29,0-.44,.03l-75.99,12.76c-.74,.12-1.46,.31-2.16,.56-2.71,1.04-4.86,3.08-6.04,5.74-1.18,2.66-1.26,5.62-.22,8.34s3.08,4.87,5.74,6.05,5.62,1.26,8.34,.22l72-27.63c1.31-.55,2.09-1.92,1.89-3.34-.22-1.58-1.58-2.73-3.13-2.73h.01Z" fill="#002346"></path>
    </g>
    <g>
      <circle cx="305.45" cy="247.18" r="6.1" fill="#f69074"></circle>
      <path d="M305.45,253.78c-3.64,0-6.6-2.96-6.6-6.6s2.96-6.6,6.6-6.6,6.6,2.96,6.6,6.6-2.96,6.6-6.6,6.6Zm0-12.2c-3.09,0-5.6,2.51-5.6,5.6s2.51,5.6,5.6,5.6,5.6-2.51,5.6-5.6-2.51-5.6-5.6-5.6Z" fill="#002346"></path>
    </g>
    <path d="M206.46,268.36c.63,.28,1.16,.72,1.55,1.29,.37,.6,.56,1.29,.54,2,.02,.71-.16,1.4-.54,2-.38,.57-.92,1.02-1.55,1.29-.75,.32-1.55,.47-2.36,.45h-2.1v2.82h-2.37v-10.3h4.43c.82-.02,1.64,.13,2.4,.45h0Zm-.87,4.58c.73-.71,.75-1.87,.04-2.6,0-.01-.03-.03-.04-.04-.47-.33-1.04-.5-1.62-.46h-1.97v3.56h2c.57,.03,1.13-.13,1.59-.46h0Z" fill="#002346"></path>
    <path d="M212.46,277.64c-2.55-1.36-3.5-4.53-2.14-7.08,.49-.91,1.23-1.65,2.14-2.14,1.81-.91,3.93-.91,5.74,0,2.55,1.35,3.51,4.51,2.16,7.06-.49,.92-1.24,1.67-2.16,2.16-1.8,.92-3.94,.92-5.74,0Zm4.51-1.75c.48-.27,.88-.67,1.15-1.16,.56-1.06,.56-2.34,0-3.4-.27-.48-.67-.89-1.15-1.16-1.02-.56-2.25-.56-3.27,0-.48,.27-.88,.68-1.15,1.16-.56,1.06-.56,2.34,0,3.4,.27,.49,.67,.89,1.15,1.16,1.02,.56,2.25,.56,3.27,0Z" fill="#002346"></path>
    <path d="M224.81,277.64c-1.71-.89-2.77-2.68-2.73-4.61,0-.95,.24-1.89,.72-2.71,.48-.8,1.17-1.46,2-1.9,1.81-.91,3.93-.91,5.74,0,2.55,1.36,3.5,4.53,2.14,7.08-.49,.91-1.23,1.65-2.14,2.14-1.8,.92-3.94,.92-5.74,0h0Zm4.51-1.75c.48-.27,.88-.67,1.15-1.16,.56-1.06,.56-2.34,0-3.4-.27-.48-.67-.89-1.15-1.16-1.02-.56-2.26-.56-3.28,0-.48,.27-.87,.68-1.14,1.16-.56,1.06-.56,2.34,0,3.4,.27,.48,.66,.89,1.14,1.16,1.02,.56,2.26,.56,3.28,0Z" fill="#002346"></path>
    <path d="M241.6,278.15l-2-2.85h-2.18v2.85h-2.37v-10.24h4.43c.81-.02,1.62,.13,2.37,.45,.62,.28,1.16,.72,1.54,1.29,.37,.6,.56,1.29,.54,2,.03,.71-.16,1.41-.55,2-.38,.57-.92,1.01-1.55,1.27l2.29,3.29-2.52-.06h0Zm-.6-7.85c-.48-.33-1.05-.5-1.63-.46h-1.93v3.57h1.93c.58,.04,1.16-.12,1.63-.47,.73-.72,.73-1.9,0-2.63h0Z" fill="#002346"></path>
    <g>
      <rect x="429.55" y="83.92" width="97.93" height="27.51" rx="6.08" ry="6.08" fill="#f69074"></rect>
      <path d="M521.4,111.93h-85.77c-3.63,0-6.58-2.95-6.58-6.58v-15.35c0-3.63,2.95-6.58,6.58-6.58h85.77c3.63,0,6.58,2.95,6.58,6.58v15.35c0,3.63-2.95,6.58-6.58,6.58Zm-85.77-27.51c-3.08,0-5.58,2.5-5.58,5.58v15.35c0,3.08,2.5,5.58,5.58,5.58h85.77c3.08,0,5.58-2.5,5.58-5.58v-15.35c0-3.08-2.5-5.58-5.58-5.58h-85.77Z" fill="#002346"></path>
    </g>
    <g>
      <path d="M447.33,93.36c0,2.38-1.93,4.31-4.31,4.31s-4.31-1.93-4.31-4.31,1.92-4.3,4.29-4.31c2.38-.01,4.32,1.91,4.33,4.29v.02Z" fill="#fff"></path>
      <path d="M443.02,98.17c-2.65,0-4.81-2.16-4.81-4.81s2.15-4.8,4.79-4.81c2.65-.05,4.82,2.14,4.83,4.79v.02c0,2.65-2.16,4.81-4.81,4.81Zm0-8.62h-.02c-2.09,0-3.79,1.72-3.79,3.81s1.71,3.81,3.81,3.81,3.81-1.71,3.81-3.81h0c-.01-2.11-1.72-3.81-3.81-3.81Z" fill="#002346"></path>
    </g>
    <g>
      <path d="M443,99.13c-4.39,0-7.94,3.54-7.95,7.93h15.89c0-4.38-3.55-7.93-7.94-7.93h0Z" fill="#fff"></path>
      <path d="M451.44,107.57h-16.89v-.5c0-2.26,.88-4.38,2.48-5.98s3.71-2.46,5.96-2.46h.01c4.65,0,8.44,3.79,8.44,8.44v.5Zm-15.87-1h14.86c-.26-3.87-3.49-6.94-7.42-6.94h-.01c-1.98,0-3.85,.77-5.25,2.17-1.29,1.29-2.05,2.97-2.17,4.77h0Z" fill="#002346"></path>
    </g>
    <g>
      <path d="M520,93.36h-62.9c-1.19,0-2.15-.96-2.16-2.15h0c0-1.19,.97-2.16,2.16-2.16h62.9c1.19,0,2.15,.97,2.15,2.16h0c0,1.19-.96,2.15-2.15,2.15h0Z" fill="#fff"></path>
      <path d="M520,93.86h-62.9c-1.46,0-2.65-1.19-2.66-2.65,0-1.47,1.19-2.66,2.66-2.66h62.9c1.46,0,2.65,1.2,2.65,2.66s-1.19,2.65-2.65,2.65Zm-62.9-4.31c-.92,0-1.66,.74-1.66,1.66s.75,1.65,1.66,1.65h62.9c.91,0,1.65-.74,1.65-1.65s-.74-1.66-1.65-1.66h-62.9Z" fill="#002346"></path>
    </g>
    <g>
      <path d="M461.47,97.81l1.08,2.19c.08,.15,.22,.25,.39,.28l2.41,.35c.28,.04,.47,.3,.43,.58-.02,.11-.07,.21-.15,.29l-1.75,1.7c-.12,.12-.17,.29-.14,.45l.41,2.4c.04,.28-.15,.54-.43,.58-.11,.02-.22,0-.31-.05l-2.15-1.1c-.15-.08-.33-.08-.48,0l-2.16,1.13c-.24,.13-.55,.04-.68-.2-.05-.1-.07-.22-.05-.33l.41-2.4c.03-.17-.03-.33-.15-.45l-1.74-1.75c-.2-.2-.21-.52-.01-.72,.08-.08,.18-.13,.29-.15l2.41-.35c.16-.03,.31-.13,.38-.28l1.08-2.19c.13-.25,.44-.34,.69-.21,.1,.05,.17,.13,.22,.23h0Z" fill="#002346"></path>
      <path d="M458.38,107.17c-.1,0-.19-.01-.29-.04-.26-.08-.47-.25-.59-.48-.11-.2-.15-.43-.1-.66l.41-2.39-1.75-1.76c-.39-.38-.4-1.02-.01-1.42,.15-.16,.36-.26,.57-.3l2.41-.35,1.08-2.2c.27-.51,.88-.69,1.37-.43,.19,.1,.34,.26,.43,.45l1.08,2.19,2.42,.36c.55,.08,.93,.6,.85,1.15-.03,.22-.14,.42-.29,.57l-1.75,1.7,.41,2.41c.04,.27-.02,.54-.18,.76s-.39,.36-.66,.4c-.21,.03-.43,0-.62-.1l-2.15-1.1-2.18,1.13c-.14,.08-.3,.12-.47,.12h.01Zm2.63-9.16l-1.09,2.18c-.14,.29-.42,.5-.75,.55l-2.42,.35,1.74,1.77c.23,.22,.35,.56,.29,.89l-.41,2.4,2.17-1.13c.29-.16,.65-.16,.95,0l2.14,1.1-.39-2.4c-.06-.32,.04-.66,.29-.89l1.75-1.7-2.41-.37c-.33-.05-.61-.25-.76-.54l-1.09-2.21h-.01Z" fill="#0d2445"></path>
    </g>
    <g>
      <path d="M475.46,97.81l1.08,2.19c.07,.15,.22,.25,.38,.28l2.41,.35c.28,.04,.47,.3,.43,.58-.02,.11-.07,.21-.15,.29l-1.74,1.7c-.12,.12-.18,.28-.15,.45l.41,2.4c.05,.27-.13,.53-.4,.58-.11,.02-.23,0-.33-.05l-2.16-1.1c-.15-.08-.32-.08-.47,0l-2.16,1.13c-.25,.13-.56,.03-.69-.22-.05-.1-.07-.21-.05-.31l.41-2.4c.03-.16-.02-.33-.14-.45l-1.75-1.75c-.2-.2-.21-.52-.01-.72,.08-.08,.18-.13,.29-.15l2.41-.35c.17-.03,.31-.13,.39-.28l1.08-2.19c.13-.25,.44-.34,.69-.21,.1,.05,.17,.13,.22,.23h0Z" fill="#002346"></path>
      <path d="M472.38,107.16c-.36,0-.72-.2-.9-.54-.1-.19-.14-.41-.1-.62l.41-2.41-1.75-1.76c-.19-.18-.3-.44-.3-.71s.1-.52,.29-.72c.15-.16,.36-.26,.57-.3l2.41-.35,1.09-2.2c.27-.51,.88-.69,1.37-.43,.19,.1,.34,.26,.43,.45l1.08,2.19,2.41,.36c.55,.08,.93,.6,.85,1.15-.03,.22-.14,.42-.29,.57l-1.74,1.7,.4,2.41c.1,.54-.26,1.06-.8,1.16-.22,.04-.46,0-.66-.1l-2.15-1.09-2.17,1.13c-.15,.08-.31,.11-.47,.11h.02Zm2.63-9.15l-1.09,2.18c-.16,.3-.44,.5-.76,.55l-2.42,.35,1.75,1.77c.24,.23,.34,.57,.28,.9l-.41,2.38,2.18-1.13c.29-.16,.64-.16,.94,0l2.15,1.09-.4-2.4c-.06-.33,.05-.67,.3-.9l1.73-1.69-2.41-.37c-.33-.05-.61-.26-.76-.55l-1.08-2.19h0Z" fill="#0d2445"></path>
    </g>
    <g>
      <path d="M489.44,97.81l1.08,2.19c.07,.15,.22,.25,.38,.28l2.41,.35c.28,.04,.48,.29,.44,.57-.01,.11-.07,.22-.15,.3l-1.75,1.7c-.12,.12-.17,.29-.14,.45l.41,2.4c.04,.28-.15,.54-.43,.58-.11,.02-.22,0-.31-.05l-2.16-1.1c-.15-.08-.32-.08-.47,0l-2.16,1.13c-.25,.13-.56,.03-.69-.22-.05-.1-.07-.21-.05-.31l.42-2.4c.03-.17-.03-.33-.15-.45l-1.75-1.75c-.2-.2-.2-.52,0-.72,.08-.08,.18-.13,.3-.15l2.41-.35c.16-.03,.31-.13,.38-.28l1.08-2.19c.13-.25,.44-.34,.69-.21,.1,.05,.17,.13,.22,.23h-.01Z" fill="#002346"></path>
      <path d="M486.36,107.16c-.36,0-.72-.2-.9-.54-.1-.19-.14-.41-.1-.62l.42-2.41-1.76-1.76c-.19-.18-.3-.44-.3-.71s.1-.52,.29-.72c.16-.16,.37-.27,.59-.29l2.4-.35,1.08-2.2c.27-.51,.88-.69,1.37-.43,.19,.1,.34,.26,.43,.45l1.08,2.19,2.41,.36c.55,.07,.94,.58,.86,1.13-.03,.22-.13,.43-.29,.59l-1.75,1.7,.41,2.41c.09,.56-.29,1.08-.84,1.16-.21,.03-.43,0-.62-.1l-2.16-1.1-2.17,1.13c-.15,.08-.31,.11-.47,.11h.02Zm2.63-9.15l-1.09,2.18c-.15,.29-.43,.5-.75,.55l-2.42,.35,1.74,1.77c.23,.23,.34,.56,.29,.88l-.42,2.41,2.18-1.13c.29-.16,.64-.16,.94,0l2.15,1.09-.39-2.4c-.06-.32,.04-.66,.29-.89l1.75-1.7-2.42-.37c-.33-.05-.61-.26-.76-.55l-1.08-2.2h0Z" fill="#0d2445"></path>
    </g>
    <g>
      <path d="M503.43,97.81l1.07,2.19c.08,.15,.22,.25,.39,.28l2.41,.35c.28,.04,.47,.3,.43,.58-.02,.11-.07,.21-.15,.29l-1.74,1.7c-.12,.12-.18,.28-.15,.45l.41,2.4c.04,.28-.15,.54-.43,.58-.11,.02-.22,0-.31-.05l-2.15-1.1c-.15-.08-.33-.08-.48,0l-2.15,1.13c-.25,.13-.56,.03-.69-.22-.05-.1-.07-.21-.05-.31l.41-2.4c.03-.17-.03-.33-.15-.45l-1.74-1.75c-.2-.2-.21-.52-.01-.72,.08-.08,.18-.13,.29-.15l2.41-.35c.17-.03,.31-.13,.39-.28l1.07-2.19c.14-.25,.46-.34,.71-.2,.09,.05,.17,.13,.21,.22h0Z" fill="#fff"></path>
      <path d="M500.35,107.16c-.36,0-.72-.2-.9-.54-.1-.19-.14-.41-.1-.62l.41-2.41-1.75-1.76c-.19-.18-.3-.43-.3-.7s.1-.52,.29-.72c.15-.16,.36-.26,.57-.3l2.41-.35,1.08-2.2c.28-.52,.91-.69,1.4-.42,.18,.1,.33,.25,.42,.44l1.07,2.19,2.42,.35c.55,.08,.93,.6,.85,1.15-.03,.22-.14,.42-.29,.57l-1.74,1.7,.4,2.41c.09,.56-.29,1.08-.84,1.16-.21,.03-.43,0-.62-.1l-2.15-1.1-2.17,1.13c-.15,.08-.31,.12-.47,.12h0Zm2.63-9.14l-1.08,2.18c-.16,.3-.44,.5-.76,.55l-2.42,.35,1.74,1.77c.23,.22,.35,.56,.29,.89l-.41,2.4,2.16-1.13c.29-.16,.65-.16,.95,0l2.14,1.1-.39-2.4c-.06-.33,.05-.67,.3-.9l1.73-1.69-2.41-.37c-.33-.05-.61-.25-.76-.54l-1.08-2.2h0Z" fill="#002346"></path>
    </g>
    <g>
      <path d="M517.41,97.81l1.08,2.19c.07,.15,.22,.25,.38,.28l2.41,.35c.28,.04,.47,.3,.43,.58-.02,.11-.07,.21-.15,.29l-1.74,1.7c-.12,.12-.18,.28-.15,.45l.42,2.4c.04,.28-.15,.54-.43,.58-.11,.02-.22,0-.31-.05l-2.16-1.1c-.15-.08-.32-.08-.47,0l-2.16,1.13c-.25,.13-.56,.03-.69-.22-.05-.1-.07-.21-.05-.31l.41-2.4c.03-.16-.02-.33-.14-.45l-1.75-1.75c-.2-.2-.21-.52-.01-.72,.08-.08,.18-.13,.29-.15l2.38-.33c.16-.03,.3-.13,.38-.28l1.08-2.19c.1-.26,.4-.39,.66-.29,.13,.05,.24,.16,.29,.29h0Z" fill="#fff"></path>
      <path d="M514.32,107.16c-.1,0-.2-.02-.3-.05-.26-.08-.47-.26-.59-.5-.1-.19-.14-.41-.1-.62l.41-2.41-1.75-1.76c-.19-.18-.3-.44-.3-.71s.1-.52,.29-.72c.15-.16,.36-.26,.57-.29l2.39-.33,1.08-2.2c.08-.21,.27-.41,.52-.52,.25-.11,.52-.11,.77-.02,.25,.1,.46,.3,.56,.55l1.07,2.17,2.41,.36c.55,.08,.93,.6,.85,1.15-.03,.22-.14,.42-.29,.57l-1.74,1.7,.41,2.41c.09,.56-.29,1.08-.84,1.16-.21,.03-.43,0-.62-.1l-2.16-1.1-2.17,1.13c-.15,.08-.31,.12-.47,.12h0Zm2.61-9.17l-1.11,2.23c-.16,.3-.42,.49-.74,.55l-2.4,.33,1.75,1.77c.24,.23,.34,.57,.28,.9l-.41,2.38,2.18-1.13c.29-.16,.64-.16,.94,0l2.15,1.09-.4-2.4c-.05-.33,.06-.66,.29-.89l1.74-1.7-2.41-.37c-.33-.05-.61-.26-.76-.55l-1.1-2.23h0v.02Z" fill="#002346"></path>
    </g>
    <g>
      <rect x="491.42" y="163.75" width="97.93" height="27.51" rx="6.08" ry="6.08" fill="#f69074"></rect>
      <path d="M583.27,191.76h-85.77c-3.63,0-6.58-2.95-6.58-6.58v-15.35c0-3.63,2.95-6.58,6.58-6.58h85.77c3.63,0,6.58,2.95,6.58,6.58v15.35c0,3.63-2.95,6.58-6.58,6.58Zm-85.77-27.51c-3.08,0-5.58,2.5-5.58,5.58v15.35c0,3.08,2.5,5.58,5.58,5.58h85.77c3.08,0,5.58-2.5,5.58-5.58v-15.35c0-3.08-2.5-5.58-5.58-5.58h-85.77Z" fill="#002346"></path>
    </g>
    <g>
      <path d="M509.2,173.19c0,2.38-1.93,4.31-4.31,4.31s-4.31-1.93-4.31-4.31,1.93-4.31,4.31-4.31h0c2.38,0,4.31,1.93,4.31,4.31Z" fill="#fff"></path>
      <path d="M504.89,178c-2.65,0-4.81-2.16-4.81-4.81s2.16-4.81,4.81-4.81,4.81,2.16,4.81,4.81-2.16,4.81-4.81,4.81Zm0-8.62c-2.1,0-3.81,1.71-3.81,3.81s1.71,3.81,3.81,3.81,3.81-1.71,3.81-3.81-1.71-3.81-3.81-3.81Z" fill="#002346"></path>
    </g>
    <g>
      <path d="M504.82,178.95c-4.38,.03-7.92,3.57-7.95,7.95h15.89c0-4.39-3.54-7.94-7.93-7.95h-.01Z" fill="#fff"></path>
      <path d="M513.26,187.4h-16.89v-.5c.03-4.63,3.82-8.42,8.45-8.45h.01c2.25,0,4.37,.88,5.97,2.48,1.59,1.6,2.47,3.72,2.46,5.97v.5Zm-15.87-1h14.85c-.12-1.8-.87-3.48-2.16-4.76-1.4-1.41-3.27-2.18-5.26-2.19v0c-3.92,.02-7.15,3.1-7.43,6.95h0Z" fill="#002346"></path>
    </g>
    <g>
      <path d="M581.84,173.19h-62.9c-1.19,0-2.15-.96-2.16-2.15h0c0-1.19,.97-2.16,2.16-2.16h62.9c1.19,0,2.16,.97,2.16,2.16h0c0,1.19-.97,2.15-2.16,2.15Z" fill="#fff"></path>
      <path d="M581.84,173.69h-62.9c-1.46,0-2.65-1.19-2.66-2.65,0-1.47,1.19-2.66,2.66-2.66h62.9c1.47,0,2.66,1.19,2.66,2.66s-1.2,2.65-2.66,2.65Zm-62.9-4.31c-.92,0-1.66,.74-1.66,1.66s.75,1.65,1.66,1.65h62.9c.91,0,1.66-.74,1.66-1.65s-.74-1.66-1.66-1.66h-62.9Z" fill="#002346"></path>
    </g>
    <g>
      <path d="M523.35,177.64l1.07,2.18c.08,.15,.22,.26,.39,.28l2.41,.35c.28,.04,.47,.3,.43,.58-.02,.11-.07,.21-.15,.29l-1.74,1.7c-.12,.12-.18,.28-.15,.45l.41,2.4c.05,.28-.14,.54-.41,.59-.11,.02-.23,0-.33-.05l-2.15-1.13c-.15-.08-.33-.08-.48,0l-2.15,1.13c-.25,.13-.56,.04-.69-.21-.05-.1-.07-.22-.05-.33l.41-2.4c.03-.17-.03-.33-.15-.45l-1.74-1.7c-.2-.2-.21-.52-.01-.72,.08-.08,.18-.13,.29-.15l2.41-.35c.17-.02,.31-.13,.39-.28l1.07-2.18c.12-.25,.43-.36,.68-.24,.1,.05,.19,.13,.24,.24h0Z" fill="#002346"></path>
      <path d="M520.26,186.96c-.36,0-.71-.2-.9-.54-.1-.2-.14-.43-.1-.65l.41-2.4-1.75-1.71c-.4-.39-.41-1.03-.02-1.43,.16-.16,.36-.26,.58-.29l2.41-.35,1.08-2.19c.11-.24,.32-.42,.57-.51s.53-.07,.77,.04c.2,.1,.37,.27,.47,.47l1.07,2.18,2.42,.36c.27,.04,.5,.18,.66,.4s.23,.48,.19,.75c-.03,.22-.14,.42-.3,.57l-1.74,1.7,.4,2.41c.05,.26-.01,.53-.17,.75-.15,.22-.39,.37-.65,.42-.22,.04-.45,0-.65-.1l-2.15-1.13-2.16,1.13c-.15,.08-.31,.12-.47,.12h.03Zm2.63-2.25c.16,0,.33,.04,.47,.12l2.15,1.13-.4-2.41c-.05-.33,.06-.66,.3-.89l1.74-1.7-2.41-.37c-.33-.05-.61-.25-.76-.55l-1.07-2.19h0l-1.09,2.19c-.15,.3-.44,.51-.77,.55l-2.41,.35,1.74,1.72c.24,.23,.35,.56,.29,.89l-.41,2.4,2.16-1.12c.15-.08,.31-.12,.47-.12h0Z" fill="#0d2445"></path>
    </g>
    <g>
      <path d="M537.33,177.64l1.08,2.18c.07,.15,.21,.26,.38,.28l2.41,.35c.28,.04,.48,.29,.44,.57-.01,.11-.07,.22-.15,.3l-1.75,1.7c-.12,.12-.17,.28-.15,.45l.42,2.4c.05,.28-.14,.54-.41,.59-.11,.02-.23,0-.33-.05l-2.16-1.13c-.15-.08-.32-.08-.47,0l-2.16,1.13c-.25,.13-.56,.04-.69-.21-.05-.1-.07-.22-.05-.33l.41-2.4c.03-.16-.02-.33-.14-.45l-1.75-1.7c-.2-.2-.2-.52,0-.72,.08-.08,.18-.13,.3-.15l2.41-.35c.17-.02,.31-.13,.38-.28l1.08-2.18c.13-.25,.43-.35,.69-.22,.1,.05,.18,.13,.22,.22h0Z" fill="#002346"></path>
      <path d="M534.24,186.97c-.1,0-.2-.02-.3-.05-.26-.08-.47-.26-.59-.49-.1-.2-.14-.43-.1-.65l.41-2.4-1.75-1.71c-.4-.39-.41-1.03-.02-1.43,.16-.16,.37-.27,.59-.29l2.4-.35,1.08-2.19c.12-.24,.33-.42,.59-.51,.26-.08,.53-.06,.77,.06,.19,.1,.35,.25,.44,.44l1.08,2.18,2.41,.36c.26,.03,.5,.17,.66,.39,.16,.21,.24,.48,.2,.75-.03,.22-.13,.43-.3,.59l-1.75,1.7,.41,2.41c.05,.26-.01,.53-.17,.75-.15,.22-.39,.37-.65,.42-.22,.04-.45,0-.65-.1l-2.16-1.13-2.17,1.13c-.15,.08-.31,.12-.47,.12h.04Zm2.63-2.25c.16,0,.33,.04,.48,.12l2.15,1.13-.4-2.41c-.05-.34,.06-.66,.29-.89l1.76-1.71-2.42-.37c-.33-.05-.62-.26-.76-.56l-1.07-2.17h0l-1.09,2.18c-.14,.3-.42,.5-.76,.55l-2.41,.35,1.74,1.72c.24,.24,.34,.57,.28,.9l-.41,2.4,2.18-1.12c.14-.08,.3-.12,.46-.12h-.02Z" fill="#0d2445"></path>
    </g>
    <g>
      <path d="M551.31,177.64l1.08,2.18c.08,.15,.22,.26,.39,.28l2.41,.35c.28,.04,.47,.3,.43,.58-.02,.11-.07,.21-.15,.29l-1.75,1.7c-.12,.12-.17,.29-.14,.45l.41,2.4c.05,.28-.14,.54-.41,.59-.11,.02-.23,0-.33-.05l-2.16-1.13c-.15-.08-.32-.08-.47,0l-2.16,1.13c-.24,.13-.55,.04-.68-.2-.06-.1-.08-.23-.05-.34l.41-2.4c.03-.17-.03-.33-.15-.45l-1.74-1.7c-.2-.2-.21-.52-.01-.72,.08-.08,.18-.13,.29-.15l2.41-.35c.17-.02,.31-.13,.38-.28l1.08-2.18c.13-.25,.43-.35,.69-.22,.1,.05,.18,.13,.22,.22h0Z" fill="#fff"></path>
      <path d="M548.22,186.97c-.09,0-.19,0-.28-.04-.26-.07-.47-.25-.6-.48-.11-.21-.15-.45-.1-.68l.41-2.38-1.75-1.71c-.4-.39-.41-1.03-.02-1.43,.16-.16,.36-.26,.58-.29l2.41-.35,1.08-2.19c.12-.24,.33-.42,.59-.51,.26-.08,.53-.06,.77,.06,.19,.1,.35,.25,.44,.44h0l1.08,2.18,2.42,.36c.27,.04,.5,.18,.66,.4s.23,.48,.19,.75c-.03,.22-.14,.42-.3,.57l-1.75,1.7,.41,2.41c.05,.26-.01,.53-.17,.75-.15,.22-.39,.37-.65,.42-.22,.04-.45,0-.65-.1l-2.16-1.13-2.17,1.13c-.14,.08-.3,.12-.47,.12h.03Zm2.63-2.25c.16,0,.33,.04,.48,.12l2.15,1.13-.39-2.41c-.06-.32,.05-.65,.28-.89l1.76-1.71-2.41-.37c-.33-.05-.61-.25-.76-.55l-1.08-2.18h0l-1.09,2.18c-.13,.29-.43,.51-.77,.55l-2.4,.35,1.74,1.72c.24,.23,.35,.56,.29,.89l-.41,2.4,2.17-1.12c.14-.08,.3-.12,.47-.12h-.03Z" fill="#002346"></path>
    </g>
    <g>
      <path d="M565.3,177.64l1.08,2.18c.07,.15,.21,.26,.38,.28l2.41,.35c.28,.04,.47,.3,.43,.58-.02,.11-.07,.21-.15,.29l-1.74,1.7c-.12,.12-.18,.28-.15,.45l.41,2.4c.06,.27-.12,.54-.39,.59-.12,.02-.24,0-.34-.05l-2.16-1.13c-.15-.08-.32-.08-.47,0l-2.16,1.13c-.25,.13-.56,.04-.69-.21-.05-.1-.07-.22-.05-.33l.41-2.4c.03-.16-.02-.33-.14-.45l-1.75-1.7c-.2-.2-.21-.52-.01-.72,.08-.08,.18-.13,.29-.15l2.41-.35c.17-.02,.31-.13,.39-.28l1.08-2.18c.13-.25,.43-.35,.69-.22,.1,.05,.18,.13,.22,.22h0Z" fill="#fff"></path>
      <path d="M567.48,186.97c-.17,0-.33-.04-.48-.12l-2.15-1.13-2.17,1.13c-.49,.26-1.1,.07-1.36-.42-.1-.2-.14-.43-.1-.65l.41-2.4-1.75-1.71c-.4-.39-.41-1.03-.02-1.43,.16-.16,.36-.26,.58-.29l2.41-.35,1.09-2.19c.12-.24,.33-.42,.59-.51,.26-.08,.53-.06,.77,.06,.19,.1,.35,.25,.44,.44h0l1.08,2.18,2.41,.36c.27,.04,.5,.18,.66,.4s.23,.48,.19,.75c-.03,.22-.14,.42-.3,.57l-1.74,1.7,.4,2.41c.05,.24,0,.51-.15,.73s-.37,.38-.63,.43c-.07,0-.14,.02-.2,.02l.02,.02Zm-2.64-2.25c.16,0,.33,.04,.48,.12l2.15,1.13-.4-2.41c-.05-.33,.06-.66,.3-.89l1.74-1.7-2.41-.37c-.33-.04-.62-.26-.76-.57l-1.07-2.16h0l-1.09,2.18c-.15,.3-.44,.5-.77,.55l-2.41,.35,1.75,1.72c.24,.24,.34,.57,.28,.9l-.41,2.4,2.18-1.12c.14-.08,.3-.12,.47-.12h-.03Z" fill="#002346"></path>
    </g>
    <g>
      <path d="M579.28,177.64l1.08,2.18c.07,.15,.21,.26,.38,.28l2.41,.35c.28,.04,.48,.29,.44,.57-.01,.11-.07,.22-.15,.3l-1.75,1.7c-.12,.12-.17,.29-.14,.45l.41,2.4c.05,.28-.14,.54-.41,.59-.11,.02-.23,0-.33-.05l-2.16-1.13c-.15-.08-.32-.08-.47,0l-2.16,1.13c-.25,.13-.56,.04-.69-.21-.05-.1-.07-.22-.05-.33l.42-2.4c.02-.17-.03-.33-.15-.45l-1.75-1.7c-.2-.2-.2-.52,0-.72,.08-.08,.18-.13,.3-.15l2.41-.35c.17-.02,.31-.13,.38-.28l1.08-2.18c.13-.25,.43-.35,.69-.22,.1,.05,.18,.13,.22,.22h0Z" fill="#fff"></path>
      <path d="M576.19,186.96c-.36,0-.71-.2-.9-.54-.1-.2-.14-.43-.1-.65l.42-2.4-1.76-1.71c-.4-.39-.41-1.03-.02-1.43,.16-.16,.37-.27,.59-.29l2.4-.35,1.08-2.19c.12-.24,.33-.42,.59-.51,.26-.08,.53-.06,.77,.06,.19,.1,.35,.25,.44,.44l1.08,2.18,2.41,.36c.26,.03,.5,.17,.66,.39,.16,.21,.24,.48,.2,.75-.03,.22-.13,.43-.3,.59l-1.75,1.7,.41,2.41c.05,.26-.01,.53-.17,.75-.15,.22-.39,.37-.65,.42-.22,.04-.45,0-.65-.1l-2.16-1.13-2.17,1.13c-.15,.08-.31,.12-.47,.12h.05Zm2.63-2.25c.16,0,.33,.04,.48,.12l2.15,1.13-.39-2.41c-.06-.32,.05-.65,.28-.89l1.76-1.71-2.42-.37c-.33-.05-.62-.26-.76-.56l-1.07-2.17h0l-1.09,2.18c-.14,.3-.42,.5-.76,.55l-2.41,.35,1.74,1.72c.23,.24,.34,.55,.3,.87l-.42,2.42,2.18-1.12c.14-.08,.3-.12,.47-.12h-.04Z" fill="#002346"></path>
    </g>
    <g>
      <rect x="185.15" y="489.77" width="133.24" height="37.43" rx="8.27" ry="8.27" fill="#f69074"></rect>
      <path d="M310.12,527.7h-116.7c-4.84,0-8.77-3.93-8.77-8.77v-20.89c0-4.84,3.93-8.77,8.77-8.77h116.7c4.84,0,8.77,3.93,8.77,8.77v20.89c0,4.84-3.93,8.77-8.77,8.77Zm-116.7-37.43c-4.28,0-7.77,3.49-7.77,7.77v20.89c0,4.28,3.49,7.77,7.77,7.77h116.7c4.28,0,7.77-3.49,7.77-7.77v-20.89c0-4.28-3.49-7.77-7.77-7.77h-116.7Z" fill="#002346"></path>
    </g>
    <g>
      <path d="M209.34,502.62c0,3.24-2.63,5.86-5.87,5.85-3.24,0-5.86-2.63-5.85-5.87,0-3.23,2.63-5.85,5.86-5.85s5.86,2.62,5.86,5.86h0Z" fill="#fff"></path>
      <path d="M203.48,508.97h0c-3.51,0-6.36-2.86-6.35-6.37,0-3.5,2.86-6.35,6.36-6.35s6.36,2.85,6.36,6.36h0c0,3.51-2.86,6.36-6.36,6.36h0Zm0-11.72c-2.95,0-5.35,2.4-5.36,5.35,0,2.96,2.4,5.36,5.35,5.37h0c2.95,0,5.35-2.4,5.36-5.35h0c0-2.96-2.4-5.37-5.36-5.37h0Z" fill="#002346"></path>
    </g>
    <g>
      <path d="M203.38,510.48c-5.97,0-10.81,4.84-10.81,10.81h21.62c0-5.97-4.84-10.81-10.81-10.81h0Z" fill="#fff"></path>
      <path d="M214.69,521.79h-22.62v-.5c0-6.24,5.07-11.31,11.31-11.31s11.31,5.07,11.31,11.31v.5Zm-21.61-1h20.6c-.26-5.45-4.78-9.81-10.3-9.81s-10.04,4.36-10.3,9.81Z" fill="#002346"></path>
    </g>
    <g>
      <path d="M308.17,502.62h-85.58c-1.62,0-2.93-1.31-2.93-2.93h0c0-1.62,1.31-2.93,2.93-2.94h85.58c1.62,0,2.93,1.32,2.93,2.94h0c0,1.62-1.31,2.93-2.93,2.93Z" fill="#fff"></path>
      <path d="M308.17,503.12h-85.58c-1.89,0-3.43-1.54-3.43-3.43s1.54-3.43,3.43-3.44h85.58c1.89,0,3.43,1.55,3.43,3.44s-1.54,3.43-3.43,3.43Zm-85.58-5.87c-1.34,0-2.43,1.1-2.43,2.44s1.09,2.43,2.43,2.43h85.58c1.34,0,2.43-1.09,2.43-2.43s-1.09-2.44-2.43-2.44h-85.58Z" fill="#002346"></path>
    </g>
    <g>
      <path d="M228.59,508.67l1.46,3c.1,.21,.3,.35,.53,.38l3.28,.48c.38,.05,.64,.4,.58,.78-.02,.15-.09,.29-.2,.4l-2.37,2.31c-.17,.16-.24,.39-.2,.62l.56,3.26c.06,.38-.21,.74-.59,.79-.14,.02-.28,0-.41-.06l-2.93-1.54c-.2-.11-.45-.11-.65,0l-2.93,1.54c-.34,.18-.75,.05-.93-.29-.07-.13-.09-.29-.07-.44l.56-3.26c.03-.23-.04-.46-.2-.62l-2.38-2.31c-.27-.26-.28-.7-.02-.98,.11-.11,.25-.18,.41-.2l3.28-.48c.23-.03,.42-.17,.52-.38l1.47-3c.17-.34,.59-.47,.93-.3,.13,.07,.24,.17,.3,.3h0Z" fill="#002346"></path>
      <path d="M224.4,521.2c-.12,0-.24-.02-.36-.05-.3-.09-.55-.3-.7-.58-.12-.23-.16-.5-.12-.76l.56-3.26c0-.06-.02-.14-.07-.19l-2.37-2.3c-.23-.22-.36-.52-.36-.83s.11-.62,.33-.85c.19-.19,.44-.32,.7-.35l3.27-.48c.06,0,.12-.05,.14-.1l1.47-3c.15-.29,.39-.5,.7-.6,.3-.1,.62-.07,.91,.07,.22,.11,.41,.29,.52,.52h0l1.46,3.01s.08,.09,.15,.1l3.28,.48c.31,.04,.59,.21,.78,.46s.27,.57,.22,.88c-.04,.26-.16,.5-.35,.69l-2.37,2.31s-.07,.11-.06,.17l.56,3.27c.05,.33-.03,.65-.22,.9-.19,.26-.47,.42-.79,.47-.24,.04-.48,0-.7-.11l-2.94-1.55c-.06-.03-.12-.03-.18,0l-2.94,1.54c-.17,.09-.36,.14-.55,.14h.03Zm3.59-12.41c-.07,0-.15,.04-.18,.1l-1.47,2.99c-.17,.35-.51,.6-.9,.66l-3.28,.48c-.05,0-.09,.03-.12,.06-.06,.06-.06,.21,0,.27l2.38,2.31c.28,.29,.4,.67,.35,1.05l-.56,3.27s0,.09,.02,.12c.04,.08,.18,.12,.26,.08l2.93-1.54c.35-.19,.77-.19,1.12,0l2.92,1.54s.06,.02,.1,.01c.09-.01,.18-.13,.17-.23l-.56-3.25c-.07-.39,.06-.79,.35-1.07l2.36-2.31s.05-.07,.06-.11c0-.09-.07-.2-.16-.21l-3.28-.48c-.39-.05-.73-.3-.9-.65l-1.46-3s-.05-.06-.08-.08c-.02-.01-.05-.02-.07-.02h0Z" fill="#0d2445"></path>
    </g>
    <g>
      <path d="M247.61,508.67l1.47,3c.1,.21,.29,.35,.52,.38l3.28,.48c.38,.05,.64,.4,.59,.77-.02,.15-.09,.3-.2,.41l-2.38,2.31c-.16,.16-.24,.39-.2,.62l.56,3.26c.07,.38-.19,.73-.56,.8-.15,.03-.3,0-.44-.07l-2.94-1.54c-.2-.11-.44-.11-.64,0l-2.93,1.54c-.34,.18-.75,.05-.93-.29-.07-.13-.09-.29-.07-.44l.56-3.26c.04-.23-.03-.46-.2-.62l-2.37-2.31c-.27-.26-.28-.7-.02-.98,.11-.11,.25-.18,.4-.2l3.28-.48c.23-.03,.42-.17,.52-.38l1.47-3c.17-.34,.59-.47,.93-.3,.13,.07,.24,.17,.3,.3h0Z" fill="#002346"></path>
      <path d="M243.42,521.2c-.12,0-.24-.02-.36-.05-.3-.09-.55-.3-.7-.58-.12-.23-.16-.5-.12-.76l.56-3.26c0-.07,0-.13-.05-.17l-2.37-2.31c-.23-.22-.36-.51-.36-.83s.11-.62,.33-.85c.18-.19,.43-.32,.69-.35l3.28-.48c.07,0,.11-.04,.14-.09l1.48-3.01c.3-.59,1.02-.82,1.6-.53,.23,.12,.41,.29,.52,.52l1.47,3.01c.03,.06,.08,.1,.14,.1l3.28,.48c.31,.04,.59,.2,.78,.45s.28,.56,.24,.88c-.03,.27-.16,.51-.35,.7l-2.38,2.31s-.07,.11-.05,.18l.56,3.26c.11,.64-.32,1.26-.97,1.38-.26,.04-.53,0-.76-.12l-2.94-1.54c-.06-.03-.12-.03-.17,0l-2.94,1.54c-.17,.09-.36,.14-.55,.14v-.02Zm3.57-12.42c-.07,0-.14,.04-.17,.1l-1.47,2.99c-.16,.35-.51,.61-.91,.66l-3.27,.48s-.08,.03-.11,.06c-.06,.06-.06,.21,0,.27l2.37,2.31c.29,.27,.42,.67,.34,1.07l-.56,3.25s0,.09,.02,.12c.03,.06,.08,.08,.11,.09,.03,0,.08,.02,.14-.01l2.93-1.54c.34-.19,.76-.19,1.11,0l2.93,1.53s.08,.03,.12,.02c.1-.02,.17-.12,.15-.22l-.56-3.26c-.06-.39,.06-.78,.34-1.06l2.38-2.31s.05-.07,.06-.11c0-.09-.07-.2-.16-.21l-3.29-.48c-.39-.05-.73-.3-.9-.66l-1.47-2.99s-.05-.06-.08-.08c-.03-.01-.06-.02-.08-.02h.03Z" fill="#0d2445"></path>
    </g>
    <g>
      <path d="M266.64,508.67l1.47,3c.1,.21,.29,.35,.52,.38l3.28,.48c.38,.05,.64,.4,.58,.78-.02,.15-.09,.29-.2,.4l-2.37,2.31c-.16,.16-.24,.39-.2,.62l.56,3.26c.07,.38-.19,.73-.56,.8-.15,.03-.3,0-.44-.07l-2.93-1.54c-.2-.11-.44-.11-.64,0l-2.94,1.54c-.34,.18-.75,.05-.93-.29-.07-.13-.09-.29-.07-.44l.56-3.26c.04-.23-.04-.46-.2-.62l-2.38-2.31c-.27-.26-.28-.7-.02-.98,.11-.11,.25-.18,.41-.2l3.28-.48c.23-.03,.42-.17,.52-.38l1.47-3c.17-.34,.59-.47,.93-.3,.13,.07,.24,.17,.3,.3h0Z" fill="#002346"></path>
      <path d="M262.45,521.2c-.12,0-.24-.02-.36-.05-.3-.09-.55-.3-.7-.58-.12-.23-.16-.5-.12-.76l.56-3.26c.01-.06-.01-.13-.06-.18l-2.38-2.31c-.23-.22-.36-.52-.36-.83s.11-.62,.33-.85c.19-.19,.44-.32,.7-.35l3.27-.48c.06,0,.12-.05,.14-.1l1.47-3c.3-.59,1.02-.83,1.6-.53,.23,.12,.41,.29,.52,.52l1.47,3.01c.03,.06,.08,.1,.13,.1l3.29,.48c.31,.04,.59,.21,.78,.46s.27,.57,.22,.88c-.04,.26-.16,.5-.35,.69l-2.37,2.31s-.07,.11-.06,.18l.56,3.26c.11,.64-.32,1.26-.97,1.38-.26,.04-.53,0-.76-.12l-2.93-1.54c-.06-.03-.12-.03-.17,0l-2.95,1.55c-.17,.09-.36,.14-.55,.14l.05-.02Zm3.58-2.7c.19,0,.39,.05,.57,.15l2.92,1.54s.08,.03,.12,.02c.1-.02,.17-.12,.15-.22l-.56-3.26c-.06-.39,.06-.78,.34-1.06l2.37-2.31s.05-.07,.06-.11c.01-.09-.07-.2-.16-.21l-3.28-.48c-.38-.05-.74-.3-.9-.67l-1.46-2.98s-.05-.06-.08-.08c-.09-.05-.21-.01-.26,.08l-1.47,2.99c-.17,.35-.51,.6-.9,.66l-3.28,.48s-.09,.03-.12,.06c-.06,.06-.06,.21,0,.27l2.38,2.31c.28,.28,.41,.67,.35,1.06l-.56,3.26s0,.09,.02,.12c.04,.08,.18,.12,.26,.08l2.94-1.54c.17-.09,.36-.14,.55-.14v-.02Z" fill="#0d2445"></path>
    </g>
    <g>
      <path d="M285.67,508.67l1.46,3c.1,.21,.29,.35,.52,.38l3.28,.48c.38,.05,.64,.4,.59,.77-.02,.15-.09,.3-.2,.41l-2.38,2.31c-.16,.16-.23,.39-.2,.62l.57,3.26c.06,.38-.21,.74-.59,.79-.14,.02-.28,0-.41-.06l-2.93-1.54c-.2-.11-.45-.11-.65,0l-2.93,1.54c-.35,.17-.77,.03-.94-.32-.06-.13-.08-.27-.06-.41l.56-3.26c.04-.23-.03-.46-.2-.62l-2.37-2.31c-.27-.26-.28-.7-.02-.98,.11-.11,.25-.18,.4-.2l3.28-.48c.23-.03,.43-.17,.53-.38l1.46-3c.18-.34,.61-.47,.95-.28,.12,.06,.22,.16,.28,.28h0Z" fill="#002346"></path>
      <path d="M288.62,521.2c-.18,0-.36-.04-.53-.12l-2.94-1.55c-.06-.03-.12-.03-.18,0l-2.94,1.54c-.3,.15-.63,.17-.93,.06-.3-.1-.55-.32-.69-.61-.11-.22-.14-.46-.11-.7l.56-3.27c.01-.07,0-.13-.05-.17l-2.38-2.31c-.23-.22-.36-.51-.36-.83s.11-.62,.33-.85c.18-.19,.43-.32,.69-.35l3.28-.48c.07,0,.13-.05,.15-.1l1.46-3c.33-.6,1.06-.81,1.64-.5,.21,.11,.37,.28,.48,.48v.02l1.47,3c.03,.06,.08,.1,.14,.1l3.28,.48c.31,.04,.59,.2,.78,.45s.28,.56,.24,.88c-.03,.27-.16,.51-.35,.7l-2.38,2.31s-.06,.12-.05,.19l.57,3.25c.1,.67-.36,1.28-1.01,1.37-.06,0-.12,.01-.17,.01h0Zm-3.56-2.69c.19,0,.39,.05,.56,.14l2.92,1.54s.06,.02,.1,.01c.11-.02,.19-.12,.17-.23l-.57-3.25c-.06-.39,.07-.78,.33-1.05l2.39-2.32s.05-.07,.06-.11c.01-.09-.07-.2-.16-.21l-3.29-.48c-.39-.05-.73-.3-.9-.66l-1.45-2.98s-.04-.06-.08-.07c-.1-.05-.22-.02-.27,.08l-1.45,2.98c-.17,.36-.52,.61-.92,.66l-3.27,.48s-.08,.03-.11,.06c-.06,.06-.06,.21,0,.27l2.37,2.31c.29,.27,.42,.67,.34,1.07l-.56,3.25s0,.07,.02,.11c.04,.08,.18,.13,.27,.09l2.92-1.53c.17-.09,.36-.14,.56-.14l.02-.02Z" fill="#0d2445"></path>
    </g>
    <g>
      <path d="M304.69,508.67l1.47,3c.1,.21,.29,.35,.52,.38l3.32,.43c.38,.05,.64,.4,.58,.78-.02,.15-.09,.29-.2,.4l-2.38,2.33c-.16,.16-.24,.39-.2,.62l.56,3.26c.07,.38-.19,.73-.56,.8-.15,.03-.3,0-.44-.07l-2.94-1.54c-.2-.11-.44-.11-.64,0l-2.94,1.54c-.34,.18-.75,.05-.93-.29-.07-.13-.09-.29-.07-.44l.56-3.26c.04-.23-.04-.46-.2-.62l-2.37-2.31c-.27-.26-.28-.7-.02-.98,.11-.11,.25-.18,.4-.2l3.28-.48c.23-.03,.42-.17,.52-.38l1.47-3c.19-.33,.61-.44,.94-.25,.11,.07,.21,.16,.27,.28h0Z" fill="#fff"></path>
      <path d="M307.68,521.17c-.19,0-.38-.05-.55-.14l-2.94-1.54c-.06-.03-.12-.03-.17,0l-2.95,1.55c-.58,.3-1.3,.08-1.61-.5-.12-.23-.16-.5-.12-.76l.56-3.26c.01-.06-.01-.13-.06-.18l-2.37-2.31c-.47-.45-.48-1.21-.03-1.68,.18-.19,.43-.31,.69-.35l3.28-.48c.07,0,.11-.04,.14-.09l1.48-3.01c.18-.31,.43-.5,.74-.58s.63-.04,.9,.12c.2,.11,.36,.28,.46,.48l1.47,3.01c.03,.06,.08,.1,.13,.1l3.32,.43c.66,.1,1.11,.7,1.02,1.35-.04,.26-.16,.5-.35,.69l-2.38,2.33s-.07,.11-.06,.18l.56,3.26c.11,.65-.32,1.26-.97,1.38-.07,.01-.14,.02-.2,.02v-.02Zm-3.57-2.7c.19,0,.39,.05,.57,.15l2.93,1.53s.08,.03,.12,.02c.1-.02,.17-.12,.16-.22l-.56-3.26c-.06-.39,.06-.78,.34-1.06l2.38-2.33s.05-.07,.06-.11c.01-.1-.06-.2-.16-.22l-3.31-.43c-.39-.05-.74-.3-.91-.67l-1.46-2.98s-.04-.06-.07-.07c-.08-.04-.22,0-.26,.07l-1.45,2.97c-.16,.36-.51,.61-.91,.66l-3.27,.48s-.08,.03-.11,.06c-.07,.08-.07,.2,0,.27l2.37,2.31c.28,.28,.41,.67,.34,1.06l-.56,3.26s0,.09,.02,.12c.05,.09,.16,.13,.26,.08l2.94-1.54c.17-.09,.36-.14,.55-.14h0Z" fill="#002346"></path>
    </g>
    <g>
      <rect x="698.43" y="486.85" width="8.84" height="145.87" fill="#e6e7e8"></rect>
      <path d="M707.77,633.22h-9.84v-146.87h9.84v146.87Zm-8.84-1h7.84v-144.87h-7.84v144.87Z" fill="#002346"></path>
    </g>
    <path d="M647.91,653.3h1.87v-4.55c.02-8.49,6.9-15.37,15.39-15.39h70.83c11,.03,19.91,8.94,19.94,19.94h1.88c-.01-12.05-9.77-21.81-21.82-21.82h-70.83c-9.53,.01-17.25,7.73-17.26,17.26v4.56Z" fill="#002346"></path>
    <path d="M721.72,650.12l1.78-.59c-.19-.58-4.86-14.14-17.91-18l-.54,1.8c12.13,3.59,16.63,16.66,16.67,16.79h0Z" fill="#002346"></path>
    <circle cx="722.46" cy="653.3" r="6.96" fill="#002346"></circle>
    <circle cx="756.71" cy="653.3" r="6.96" fill="#002346"></circle>
    <circle cx="648.69" cy="653.3" r="6.96" fill="#002346"></circle>
    <g>
      <polygon points="653.47 480.04 763.58 480.04 779.25 322.38 653.47 322.38 653.47 480.04" fill="#e6e7e8"></polygon>
      <path d="M764.03,480.54h-111.06v-158.66h126.83l-15.77,158.66Zm-110.06-1h109.16l15.57-156.66h-124.73v156.66Z" fill="#002346"></path>
    </g>
    <g>
      <rect x="624.39" y="636.05" width="83.51" height="5.09" transform="translate(-220.86 384.08) rotate(-27.78)" fill="#fff"></rect>
      <path d="M630.18,660.98l-2.84-5.39,74.77-39.39,2.84,5.39-74.77,39.39Zm-1.49-4.97l1.91,3.62,73-38.46-1.91-3.62-73,38.46Z" fill="#002346"></path>
    </g>
    <g>
      <rect x="648.07" y="574" width="31.85" height="21.46" transform="translate(-196 376.87) rotate(-27.78)" fill="#f2b3c1"></rect>
      <path d="M654.69,602.32l-10.47-19.87,29.06-15.31,10.47,19.87-29.06,15.31Zm-9.12-19.45l9.54,18.1,27.29-14.38-9.54-18.1-27.29,14.38Z" fill="#002346"></path>
    </g>
    <g>
      <path d="M628,655.77l73.88-38.92-18.83-30-24.63,13c-.41-1.91-1.18-3.72-2.28-5.33-.45-.68-1.05-1.26-1.75-1.69-2.36-1.39-3.56,.2-4.14,1.71-.37,1-.52,2.07-.44,3.13,.49,8.35-1.42,16.92-3.47,23.41-1.36,4.3-3.56,8.3-6.46,11.75-1.09,1.3-2.27,2.53-3.53,3.66-11.74,10.55-8.35,19.28-8.35,19.28h0Z" fill="#f69074"></path>
      <path d="M627.74,656.47l-.2-.52c-.14-.37-3.38-9.17,8.48-19.83,1.24-1.11,2.41-2.33,3.48-3.61,2.88-3.42,5.02-7.32,6.37-11.58,1.85-5.86,3.95-14.65,3.45-23.23-.09-1.13,.07-2.26,.47-3.33,.5-1.3,1.21-2.12,2.11-2.43,.82-.29,1.75-.13,2.76,.47,.76,.47,1.42,1.1,1.91,1.84,1.01,1.49,1.75,3.12,2.2,4.86l24.47-12.91,19.36,30.85-74.85,39.43h0Zm24.98-63.69c-.18,0-.34,.03-.5,.08-.76,.26-1.23,1.15-1.5,1.84-.35,.93-.48,1.92-.41,2.91,.51,8.74-1.62,17.66-3.49,23.6-1.39,4.39-3.59,8.4-6.55,11.92-1.1,1.32-2.3,2.57-3.58,3.71-9.7,8.72-8.85,16.15-8.37,18.18l72.86-38.38-18.3-29.15-24.8,13.09-.14-.65c-.4-1.85-1.14-3.59-2.2-5.15-.41-.62-.97-1.16-1.6-1.54-.52-.31-.99-.46-1.41-.46h-.01Z" fill="#002346"></path>
    </g>
    <g>
      <rect x="556.62" y="598.39" width="31.85" height="21.46" fill="#f2b3c1"></rect>
      <path d="M588.97,620.35h-32.85v-22.46h32.85v22.46Zm-31.85-1h30.85v-20.46h-30.85v20.46Z" fill="#002346"></path>
    </g>
    <g>
      <path d="M507.64,655.18h83.51l-2.68-35.33h-27.83c.52-1.88,.68-3.84,.46-5.78-.08-.82-.34-1.61-.76-2.31-1.44-2.33-3.24-1.48-4.46-.42-.8,.71-1.42,1.59-1.84,2.57-3.47,7.61-9.15,14.3-14,19.09-3.21,3.18-7.01,5.68-11.19,7.38-1.57,.65-3.18,1.18-4.83,1.6-15.34,3.89-16.38,13.2-16.38,13.2h0Z" fill="#f69074"></path>
      <path d="M591.69,655.68h-84.61l.06-.56c.04-.39,1.26-9.7,16.75-13.63,1.62-.41,3.22-.94,4.76-1.58,4.14-1.68,7.85-4.13,11.03-7.27,4.37-4.31,10.32-11.1,13.9-18.94,.44-1.03,1.12-1.98,1.96-2.74,1.06-.92,2.06-1.31,3-1.17,.86,.13,1.6,.7,2.22,1.7,.46,.77,.75,1.64,.83,2.52,.2,1.79,.09,3.58-.31,5.33h27.65l2.76,36.33h0Zm-83.43-.99h82.35l-2.6-34.33h-28.02l.17-.63c.5-1.83,.65-3.71,.45-5.59-.07-.74-.31-1.47-.69-2.11-.45-.73-.96-1.14-1.51-1.23-.79-.12-1.63,.44-2.19,.93-.73,.65-1.32,1.48-1.71,2.39-3.65,7.99-9.68,14.88-14.11,19.25-3.27,3.24-7.09,5.76-11.35,7.49-1.58,.65-3.23,1.2-4.9,1.62-12.63,3.2-15.36,10.19-15.89,12.22h0Z" fill="#002346"></path>
    </g>
    <g>
      <path d="M625.33,308.23c.48,.4-8.39,14.15-8.39,14.15l-46.67-38.77c-.4-.34-.77-.71-1.1-1.12-.59-.76-1.71-2.16-3.12-3.83-3.56-4.31-6.86-8.83-9.89-13.53-1.16-1.77-2.63-3.11-4.24-2.34,0,0-4.1,.89,0,10.88l-24.92-8.92c-1.15-.4-2.42,.09-3,1.16l-.18,.33c-.63,1.16-.24,2.62,.89,3.31l11.69,7.11c.12,.09,.13,.26,.04,.38-.07,.08-.18,.12-.28,.09l-13.29-5.32c-1.28-.51-2.73,.12-3.23,1.4-.02,.06-.04,.11-.06,.17l-.33,1.05c-.38,1.2,.2,2.49,1.35,3l12.69,5.72c.13,.07,.18,.24,.11,.37-.06,.11-.18,.16-.3,.13l-12.37-3.64c-1.22-.36-2.51,.25-3,1.43h0c-.51,1.24,.05,2.66,1.27,3.22l14.24,6.4c.13,.07,.18,.23,.12,.36-.05,.09-.14,.15-.25,.15l-7.69-.62c-1.09-.09-2.11,.55-2.51,1.57l-.1,.26c-.47,1.2,.05,2.56,1.21,3.13h0c6.47,3.19,12.65,6.94,18.47,11.21l66.39,48.79c4.9,3.66,10.71,5.92,16.8,6.53,7.79,.73,17-1.16,20.07-12.91l12.34-24.05-29.71-21.21-3.05,3.96h0Z" fill="#f2b3c1"></path>
      <path d="M628.5,363.07c-.98,0-1.94-.05-2.87-.14-6.18-.62-12.08-2.91-17.05-6.63l-66.39-48.79c-5.78-4.24-11.97-8-18.39-11.16-1.4-.69-2.02-2.31-1.45-3.76l.1-.26c.48-1.24,1.7-1.99,3.02-1.89l6.35,.51-13.01-5.85c-1.48-.67-2.15-2.37-1.53-3.87,.58-1.42,2.14-2.16,3.6-1.72l9.14,2.69-9.62-4.33c-1.38-.61-2.08-2.17-1.62-3.61l.33-1.05c.02-.07,.04-.13,.07-.2,.61-1.54,2.35-2.29,3.88-1.68l10.68,4.28-9.29-5.65c-1.36-.83-1.83-2.58-1.07-3.98l.18-.33c.7-1.29,2.22-1.87,3.6-1.39l23.89,8.55c-1.57-4.16-1.88-7.21-.9-9.07,.56-1.06,1.35-1.37,1.59-1.44,1.12-.52,2.86-.47,4.83,2.54,3.01,4.67,6.32,9.21,9.86,13.49,1.7,2.01,2.82,3.45,3.13,3.84,.3,.38,.65,.73,1.02,1.04l46.24,38.41c2.99-4.65,7.41-11.74,7.97-13.2l-.16-.13,3.64-4.72,30.45,21.74-12.51,24.39c-2.83,10.73-10.69,13.37-17.72,13.37h.01Zm-103.29-71.63c-.81,0-1.54,.49-1.84,1.26l-.1,.26c-.37,.95,.05,2.05,.96,2.5,6.48,3.19,12.72,6.98,18.54,11.26l66.39,48.79c4.83,3.61,10.56,5.83,16.55,6.44,7.24,.68,16.51-.95,19.54-12.54l.04-.1,12.14-23.67-28.97-20.68-2.71,3.52c-.28,1.06-1.94,4.15-8.41,14.18l-.31,.47-47.1-39.13c-.43-.35-.82-.76-1.17-1.19-.31-.4-1.42-1.82-3.11-3.82-3.56-4.31-6.9-8.88-9.93-13.58-1.28-1.96-2.5-2.69-3.6-2.16l-.11,.04s-.6,.16-1.01,.99c-.61,1.21-.86,3.79,1.37,9.21l.43,1.04-25.98-9.3c-.92-.31-1.93,.07-2.39,.93l-.18,.33c-.5,.93-.19,2.09,.71,2.64l11.69,7.11c.39,.31,.43,.79,.17,1.12-.19,.23-.5,.34-.79,.26l-13.35-5.34c-1.02-.4-2.18,.1-2.58,1.12l-.38,1.19c-.3,.96,.16,1.99,1.08,2.39l12.69,5.72c.41,.22,.54,.69,.34,1.06-.16,.3-.51,.46-.85,.38l-12.4-3.65c-.98-.29-2.01,.2-2.4,1.14-.41,1,.03,2.13,1.01,2.57l14.24,6.4c.21,.1,.34,.26,.4,.46,.06,.2,.05,.4-.05,.59-.13,.26-.42,.41-.7,.42l-7.72-.62h-.15Z" fill="#002346"></path>
    </g>
    <rect x="579.21" y="395" width="46.45" height="8.1" fill="#002346"></rect>
    <g>
      <path d="M788.79,332.92l-15.68,156.85h-111.8v-5.22c0-7.02,5.67-12.71,12.69-12.74h80.53l15.14-140.86c.53-4.87,4.64-8.57,9.54-8.57h0c5.3-.02,9.61,4.26,9.63,9.55,0,.33-.01,.66-.05,.99h0Z" fill="#fff"></path>
      <path d="M773.56,490.27h-112.75v-5.72c0-7.27,5.92-13.21,13.19-13.24h80.08l15.09-140.41c.55-5.14,4.87-9.01,10.04-9.02h.04c5.54,0,10.07,4.5,10.09,10.05,0,.35-.02,.69-.05,1.04l-15.73,157.3h0Zm-111.75-1h110.85l15.63-156.4c.03-.31,.05-.62,.04-.94,0-2.43-.96-4.71-2.69-6.42-1.72-1.71-4-2.66-6.44-2.64-4.66,0-8.55,3.49-9.04,8.12l-15.19,141.31h-80.98c-6.72,.03-12.19,5.52-12.19,12.24v4.72h.01Z" fill="#002346"></path>
    </g>
    <g>
      <path d="M745.92,397.96v39.37s-2.32,29.78-33.67,34.48h-68.94l45.21,93.51-56.54,26.8-29.87-34.1,2.12,40.37h-61.37l2.85-120.7s1.79-51.64,52.9-63.48l39.48-10.5,13.77-1.59,89.78-7.11,4.28,2.95h0Z" fill="#fbe493"></path>
      <path d="M604.76,598.89h-62.41l2.86-121.21c0-.14,.53-13.19,7.33-27.5,6.28-13.23,19.36-30.29,45.96-36.45l39.46-10.5,13.84-1.6,89.97-7.13,4.64,3.2v39.63c-.02,.34-2.72,30.27-34.1,34.97h-68.22l45.09,93.25-57.34,27.18-29.17-33.3,2.07,39.46h.02Zm-61.38-1h60.33l-2.17-41.29,30.57,34.9,55.75-26.42-45.34-93.78h69.74c30.51-4.58,33.15-33.73,33.17-34.02v-39.07l-3.92-2.7-89.6,7.1-13.75,1.59-39.41,10.49c-50.17,11.62-52.51,62.5-52.53,63.01l-2.84,120.18h0Z" fill="#0d2445"></path>
    </g>
    <g>
      <polygon points="756.72 415.36 788.84 660.26 797.77 660.26 770.01 415.36 756.72 415.36" fill="#e6e7e8"></polygon>
      <path d="M798.33,660.76h-9.93l-32.25-245.9h14.31l27.87,245.9Zm-9.05-1h7.93l-27.65-243.9h-12.27l31.99,243.9h0Z" fill="#002346"></path>
    </g>
    <g>
      <path d="M756.71,337.95l-.66-15.57s3.59-37.69-30.87-41.74h-74.3s-10.65-1.38-19,12.45l-9.52,12.69,24,19.71s-7.26,4.76-6.12,12.47c.05,5.35,2.9,10.28,7.51,13v40.69h70.85v-47.85l38.11-5.85Z" fill="#f69074"></path>
      <path d="M719.1,392.15h-71.85v-40.91c-4.59-2.82-7.46-7.88-7.51-13.28-.98-6.6,4.1-11.17,5.81-12.5l-23.87-19.61,9.81-13.07c8.39-13.91,19.02-12.7,19.46-12.65h74.24c34.6,4.06,31.4,41.9,31.37,42.28l.68,15.95-38.13,5.85v47.94Zm-70.86-1h69.85v-47.78l38.09-5.85-.64-15.12c.04-.44,3.14-37.32-30.43-41.26h-74.24c-.17-.01-10.51-1.15-18.57,12.21l-9.26,12.35,24.16,19.84-.57,.37c-.07,.05-6.98,4.68-5.9,11.98,.05,5.21,2.84,10.03,7.27,12.64l.25,.15v40.48h0Z" fill="#002346"></path>
    </g>
    <g>
      <path d="M681.28,280.63v-8.38s-15.91-3.35-17.09-21.86c0,0-.43,8-8.36,17,0,0-6.72,7.43-7.76,13.28l33.21-.04Z" fill="#002346"></path>
      <path d="M647.47,281.17l.1-.59c1.05-5.92,7.6-13.22,7.88-13.53,7.7-8.74,8.23-16.61,8.23-16.69h1c1.14,17.89,16.06,21.26,16.69,21.4l.4,.08v9.28l-34.31,.04h.01Zm16.6-27.44c-.86,3.21-2.93,8.39-7.87,14-.07,.08-6.2,6.9-7.52,12.45l32.09-.04v-7.49c-2.33-.64-14.22-4.6-16.7-18.92h0Z" fill="#0d2445"></path>
    </g>
    <g>
      <rect x="507.64" y="655.17" width="83.51" height="5.09" fill="#fff"></rect>
      <path d="M591.65,660.76h-84.51v-6.09h84.51v6.09Zm-83.51-1h82.51v-4.09h-82.51v4.09Z" fill="#002346"></path>
    </g>
    <path d="M559.7,283.82c-.08,0-.16-.02-.24-.06-4.62-2.52-7.11-7.69-7.21-7.9-.12-.25-.01-.55,.24-.67,.25-.12,.55-.01,.67,.24,.02,.05,2.46,5.1,6.79,7.46,.24,.13,.33,.44,.2,.68-.09,.17-.26,.26-.44,.26h0Z" fill="#002346"></path>
    <g>
      <polygon points="441.02 415.41 407.04 660.22 398.11 660.22 427.73 415.41 441.02 415.41" fill="#e6e7e8"></polygon>
      <path d="M407.48,660.72h-9.93l29.74-245.81h14.31l-34.12,245.81Zm-8.8-1h7.93l33.84-243.81h-12.27l-29.5,243.81Z" fill="#002346"></path>
    </g>
    <g>
      <path d="M706.8,254.48c-1.04,7.67-.2,15.47,2.43,22.75,0,0,4.55,6.07-2.87,9.28,0,0-24.18,6.6-25.08-5.89v-10l25.52-16.14h0Z" fill="#f2b3c1"></path>
      <path d="M693.67,288.76c-3.62,0-7.24-.56-9.73-2.33-1.92-1.36-2.98-3.3-3.16-5.78v-10.31l26.66-16.86-.14,1.06c-1.02,7.53-.19,15.29,2.38,22.45,.31,.44,1.97,2.95,1.26,5.63-.49,1.83-1.96,3.29-4.38,4.34-.45,.13-6.66,1.79-12.88,1.79h-.01Zm-11.89-17.86v9.72c.15,2.13,1.08,3.82,2.74,5,6.38,4.52,21.56,.45,21.71,.41,2.05-.89,3.33-2.13,3.74-3.65,.65-2.42-1.12-4.83-1.14-4.85l-.07-.13c-2.53-6.99-3.42-14.55-2.59-21.93l-24.39,15.43h0Z" fill="#002346"></path>
    </g>
    <g>
      <path d="M686.71,201.59h0c12.44,0,22.52,10.08,22.52,22.52v26.28c0,12.44-10.08,22.52-22.52,22.52h0c-12.44,0-22.52-10.08-22.52-22.52v-26.28c0-12.44,10.08-22.52,22.52-22.52Z" fill="#f2b3c1"></path>
      <path d="M686.71,273.41c-12.69,0-23.02-10.33-23.02-23.02v-26.28c0-12.69,10.33-23.02,23.02-23.02s23.02,10.33,23.02,23.02v26.28c0,12.69-10.33,23.02-23.02,23.02Zm0-71.32c-12.14,0-22.02,9.88-22.02,22.02v26.28c0,12.14,9.88,22.02,22.02,22.02h0c12.14,0,22.02-9.88,22.02-22.02v-26.28c0-12.14-9.88-22.02-22.02-22.02Z" fill="#002346"></path>
    </g>
    <g>
      <path d="M684.05,209.53s-1.31,10.59,13.65,19c0,0,5.71,4.34,5.13,13.55l6.4,8.31s.6,4.35-2.86,11c.02,5.41,.99,10.78,2.86,15.86,.6,1.07,1.06,2.21,1.38,3.4h12.49c2.44,0,4.88,.31,7.24,.94,9.97,2.64,18.16,9.75,22.16,19.26,2.34,5.38,3.34,12.39,3.55,16.82v4.72h17s3-32.07-23.1-52.88c-1.99-1.55-4.08-2.97-6.26-4.25-3.69-2.21-13.84-10.29-17-33.51,0,0-1.07-35-28.2-34.62,0,0-36.34-3.2-34.22,29.8-.08,0,6.67-14.45,19.78-17.4h0Z" fill="#002346"></path>
      <path d="M773.51,322.89h-17.96v-5.22c-.22-4.63-1.26-11.45-3.51-16.62-3.91-9.31-12.07-16.4-21.83-18.98-2.32-.62-4.73-.92-7.11-.92h-12.88l-.1-.37c-.31-1.14-.76-2.25-1.33-3.29-1.93-5.22-2.9-10.61-2.92-16.1v-.12l.06-.11c3.02-5.8,2.88-9.83,2.82-10.58l-6.43-8.35v-.19c.57-8.81-4.87-13.08-4.92-13.12-12.99-7.3-13.91-16.2-13.88-18.75-12.44,3.21-18.72,16.77-18.77,16.9l-.41-.15-.56,.04h0c-.59-9.34,1.8-16.7,7.12-21.9,10.09-9.85,27.47-8.45,27.64-8.43,27.22-.35,28.65,34.75,28.66,35.1,3.09,22.65,12.75,30.69,16.76,33.1,2.18,1.28,4.31,2.72,6.31,4.28,26.01,20.74,23.32,53,23.29,53.32l-.04,.45h-.01Zm-16.96-.99h16.03c.22-3.97,.96-32.93-22.94-51.99-1.96-1.53-4.05-2.95-6.2-4.21-4.14-2.48-14.09-10.74-17.24-33.87-.01-.4-1.38-34.58-27.7-34.19-.22-.02-17.15-1.38-26.91,8.15-4.74,4.63-7.05,11.09-6.9,19.21,2.33-4.17,9.01-13.65,19.25-15.95l.69-.16-.08,.7c-.01,.1-1.06,10.38,13.4,18.5,.3,.22,5.9,4.59,5.4,13.83l6.37,8.27,.02,.13c.03,.18,.58,4.54-2.85,11.19,.04,5.33,.99,10.56,2.83,15.57,.53,.93,.97,1.98,1.29,3.07h12.11c2.47,.02,4.96,.31,7.37,.96,10.05,2.66,18.46,9.96,22.49,19.55,2.3,5.29,3.36,12.25,3.59,16.99v4.24h-.02Z" fill="#0d2445"></path>
    </g>
    <g>
      <ellipse cx="709.23" cy="243.78" rx="6.56" ry="8.03" fill="#f2b3c1"></ellipse>
      <path d="M709.23,252.31c-3.89,0-7.06-3.83-7.06-8.53s3.17-8.53,7.06-8.53,7.06,3.83,7.06,8.53-3.17,8.53-7.06,8.53Zm0-16.06c-3.34,0-6.06,3.38-6.06,7.53s2.72,7.53,6.06,7.53,6.06-3.38,6.06-7.53-2.72-7.53-6.06-7.53Z" fill="#002346"></path>
    </g>
    <g>
      <rect x="379.7" y="403.11" width="438.41" height="14.4" fill="#fff"></rect>
      <path d="M818.61,418.01H379.2v-15.4h439.41v15.4Zm-438.41-1h437.41v-13.4H380.2v13.4h0Z" fill="#002346"></path>
    </g>
    <g>
      <path d="M753.9,338.38l2.81,37.1s1.24,19.21-16.47,25.85c-3.43,1.25-7.06,1.86-10.71,1.79l-77.67-.95-36.65,4.23c-.93,.11-1.78-.56-1.89-1.49,0-.07-.01-.13-.01-.2h0c0-.65,.36-1.24,.94-1.53l4.49-2.24c.21-.11,.29-.36,.18-.56-.08-.16-.26-.25-.43-.23l-6.36,1.06c-1.3,.22-2.53-.67-2.75-1.97-.02-.13-.03-.25-.03-.38h0c0-1.1,.76-2.06,1.83-2.32l3.94-1c.22-.07,.35-.3,.28-.53-.05-.16-.2-.28-.37-.29h-8.65c-1.5,0-2.71-1.21-2.71-2.71h0c0-1.3,.91-2.42,2.18-2.67l13.53-2.69c.23,0,.41-.18,.41-.41s-.18-.41-.41-.41l-11.62-.92c-1.47-.12-2.62-1.31-2.68-2.79h0c-.05-1.52,1.08-2.83,2.59-3l18-2c.23-.09,.35-.35,.26-.58-.05-.12-.14-.21-.26-.26l-5.42-2.42c-1.62-.72-2.36-2.62-1.65-4.25h0c.67-1.54,2.41-2.31,4-1.77l25.17,8.66,70.83-7.02v-25.7l35.3-5.4h0Z" fill="#f2b3c1"></path>
      <path d="M615,406.91c-.49,0-.96-.16-1.36-.47-.46-.36-.75-.89-.82-1.47-.01-.09-.02-.17-.02-.26,0-.84,.46-1.6,1.22-1.98l4.01-2-5.82,.97c-1.57,.26-3.06-.81-3.32-2.38-.03-.15-.04-.31-.04-.46,0-1.34,.91-2.5,2.21-2.81l3.28-.83h-7.97c-1.77,0-3.21-1.44-3.21-3.21,0-1.54,1.08-2.86,2.58-3.16l12.94-2.57-10.98-.87c-1.72-.14-3.07-1.54-3.14-3.27-.06-1.77,1.27-3.32,3.03-3.52l17.85-1.98-5.41-2.32c-1.86-.83-2.72-3.03-1.9-4.91,.77-1.77,2.8-2.66,4.62-2.04l25.07,8.63,70.27-6.96v-25.68l36.26-5.55,2.85,37.64c.01,.2,1.06,19.66-16.79,26.36-3.5,1.28-7.17,1.88-10.9,1.82l-77.67-.95-36.59,4.23c-.09,.01-.18,.02-.26,.02v-.02Zm3.55-7.27c.35,0,.67,.19,.82,.5,.11,.22,.13,.47,.06,.7-.08,.23-.24,.42-.46,.54l-4.49,2.24c-.41,.21-.67,.62-.66,1.08v.15c.04,.32,.2,.6,.45,.8,.25,.2,.57,.29,.88,.25l36.65-4.23,77.73,.95c3.6,.06,7.15-.52,10.53-1.76,17.14-6.43,16.15-25.16,16.14-25.35l-2.77-36.56-34.34,5.25v25.72l-71.39,7.08-25.27-8.7c-1.33-.45-2.82,.21-3.38,1.5-.6,1.37,.03,2.98,1.4,3.59l5.42,2.42c.23,.09,.43,.29,.52,.54,.19,.49-.06,1.04-.55,1.23l-.12,.03-18,2c-1.24,.14-2.19,1.23-2.15,2.49,.05,1.22,1,2.21,2.22,2.31l11.62,.92c.5,.02,.87,.41,.87,.91s-.41,.91-.91,.91l-13.43,2.68c-1.03,.21-1.78,1.12-1.78,2.17,0,1.23,.99,2.22,2.21,2.22h8.65c.42,.03,.73,.29,.85,.65,.15,.48-.12,1-.61,1.15l-3.96,1.01c-.86,.2-1.45,.96-1.45,1.83,0,.1,0,.2,.03,.3,.17,1.03,1.15,1.73,2.17,1.56l6.36-1.06h.14v-.02Zm.82-13.32h0Z" fill="#002346"></path>
    </g>
    <g>
      <polygon points="493.93 379.75 615 379.75 593.53 297.75 472.81 297.75 493.93 379.75" fill="#fbe493"></polygon>
      <path d="M615.65,380.25h-122.11l-21.38-83h121.75l21.73,83h.01Zm-121.33-1h120.03l-21.21-81h-119.69l20.86,81h.01Z" fill="#0d2445"></path>
    </g>
    <g>
      <polygon points="598.87 297.75 593.53 297.75 615 379.75 619.73 379.75 598.87 297.75" fill="#fff"></polygon>
      <path d="M620.37,380.25h-5.76l-21.73-83h6.38l21.11,83Zm-4.99-1h3.7l-20.61-81h-4.3l21.21,81h0Z" fill="#002346"></path>
    </g>
    <g>
      <path d="M558.33,362.58l-7.33,35.55h23.8c1.37,0,2.48,1.1,2.49,2.47v.02h0c0,1.37-1.11,2.48-2.48,2.48h-51.67c-2.92-.02-5.27-2.39-5.25-5.31,0-.54,.09-1.07,.25-1.58l10.76-33.63h29.43Z" fill="#fbe493"></path>
      <path d="M574.81,403.6h-51.67c-1.55,0-2.99-.62-4.08-1.71-1.09-1.1-1.68-2.55-1.67-4.1,0-.59,.1-1.17,.28-1.73l10.87-33.98h30.41l-7.33,35.55h23.2c1.64,0,2.97,1.33,2.98,2.97,0,1.67-1.34,3-2.98,3h-.01Zm-45.54-40.52l-10.65,33.28c-.15,.46-.23,.94-.23,1.43,0,1.28,.48,2.48,1.38,3.39s2.1,1.41,3.37,1.42h51.66c1.1,0,1.99-.89,1.99-1.98s-.89-1.99-1.98-1.99h-24.42l7.33-35.55h-28.45Z" fill="#0d2445"></path>
    </g>
    <g>
      <polygon points="558.33 362.58 562.24 362.58 555.01 398.13 550.98 398.13 558.33 362.58" fill="#002346"></polygon>
      <path d="M555.42,398.63h-5.05l7.56-36.55h4.93l-7.43,36.55h-.01Zm-3.82-1h3.01l7.03-34.55h-2.89l-7.14,34.55h-.01Z" fill="#0d2445"></path>
    </g>
    <path d="M646.36,325.99c-.28,0-.5-.22-.5-.5v-20.94c0-.28,.22-.5,.5-.5s.5,.22,.5,.5v20.94c0,.28-.22,.5-.5,.5Z" fill="#002346"></path>
    <path d="M710.61,346.45c-.11,0-.23-.04-.32-.11-.13-.1-.19-.26-.18-.42l2.5-33.38c.02-.28,.26-.49,.54-.46,.28,.02,.48,.26,.46,.54l-2.44,32.67,7.31-1.98c.27-.07,.54,.09,.61,.35,.07,.27-.08,.54-.35,.61l-7.99,2.17s-.09,.02-.13,.02h-.01Z" fill="#002346"></path>
    <path d="M602.48,452.83h0c.28,0,.5,.22,.5,.5v104.99c0,.28-.22,.5-.5,.5h0c-.28,0-.5-.22-.5-.5v-104.99c0-.28,.22-.5,.5-.5Z" fill="#002346"></path>
  </g>
  <g>
    <ellipse cx="685.52" cy="218.32" rx="17" ry="8" fill="#002346"></ellipse>
    <path d="M685.52,226.82c-9.81,0-17.5-3.73-17.5-8.5s7.69-8.5,17.5-8.5,17.5,3.73,17.5,8.5-7.69,8.5-17.5,8.5Zm0-16c-8.94,0-16.5,3.43-16.5,7.5s7.56,7.5,16.5,7.5,16.5-3.43,16.5-7.5-7.56-7.5-16.5-7.5Z" fill="#0d2445"></path>
  </g>
</svg>
