<?xml version="1.0" encoding="UTF-8"?>
<svg xmlns="http://www.w3.org/2000/svg" id="a" width="865.76" height="682.89" viewBox="0 0 865.76 682.89">
  <path d="M351.3,313.19s37.86-15.55,63.68-18.05l34.6,23.31-17.3,36.1-27.68,18.44m-.07-.06c.75-1.29,4.1-9.32-14.37-29.17,0,0-7.63-9.58-38.01-30-.13-.08-.28,.08-.17,.19l52.55,58.98Z" fill="#fff" stroke="#002346" stroke-miterlimit="10"></path>
  <path d="M338.22,423.95h0c-1.78,.73-3.85-.03-4.63-1.71l-58-125.98,6.41-2.69,58,126.01c.77,1.67-.02,3.62-1.78,4.36Z" fill="#ebebeb" stroke="#002346" stroke-miterlimit="10"></path>
  <rect x="193.97" y="419.56" width="222.64" height="6.55" fill="#fff" stroke="#002346" stroke-miterlimit="10"></rect>
  <path d="M77.14,353.3s-7.49,13.17-9.83,15.51c0,0,8.12,4.06,11.31,11.06,.06,.12,.19,.18,.28,.09l16.86-16.41c-5.19-5.01-11.61-8.54-18.62-10.25Z" fill="#f2b3c1" stroke="#002346" stroke-miterlimit="10"></path>
  <path d="M67.31,368.81c-3.76,2.57-7.87,4.59-12.2,6,0,0,8.52,2.17,6.18,17.05,0,0-3,23.73,.67,28.58,1.86,2.5,3.89,4.88,6.07,7.11,.03,.02,.06,.01,.08-.02,.01-.02,.01-.04,0-.05-1.1-2-6.37-12.24-3.3-19.63,.54-1.32,1.11-2.63,1.55-4,1.7-5.34,6.27-18.15,12.53-23.89,0,0-5.24-8.64-11.59-11.15Z" fill="#f69074" stroke="#002346" stroke-miterlimit="10"></path>
  <path d="M56.06,375.3c-.59-.33-1.26-.5-1.93-.48-3.78,.08-17,1.71-11.56,20.57,0,0,3.35,10.69,1.67,17.55,0,0-3.17,15.21,8,15.88,0,0,13,1,15.76-1.28,0,0-8.91-5.74-7.91-16.11l1-17.55s3.31-13.86-5.03-18.58Z" fill="#fff" stroke="#002346" stroke-miterlimit="10"></path>
  <path d="M78.45,208.81s-3.31,12.28,3.69,27.28l10.19,23.46s1.46,7.28-2.62,9c0,0-7,2-5,13.39,0,0,1.17,12.22,4.08,12.22,0,0,2.62,1.46-.58-13.09,0,0,3.2,9.6,7.27,6.11,0,0,3.2-12.51,.87-21.83,0,0-6.26-10.52,2.33-27.93l-.26-8.62s-5.3,1.89-3.83-10.46c0,0-5.45-7.25-11-5.77,.02,.04-1.65-.56-5.14-3.76Z" fill="#f2b3c1" stroke="#002346" stroke-miterlimit="10"></path>
  <rect x="141.91" y="126.79" width="221.69" height="157.49" fill="#fff" stroke="#002346" stroke-miterlimit="10"></rect>
  <rect x="134.23" y="121.86" width="237.05" height="8.78" fill="#ebebeb" stroke="#002346" stroke-miterlimit="10"></rect>
  <circle cx="311.35" cy="211.4" r="6.92" fill="#ebebeb" stroke="#002346" stroke-miterlimit="10"></circle>
  <circle cx="279.14" cy="224.91" r="6.92" fill="#ebebeb" stroke="#002346" stroke-miterlimit="10"></circle>
  <circle cx="340.95" cy="234.89" r="6.92" fill="#ebebeb" stroke="#002346" stroke-miterlimit="10"></circle>
  <line x1="286.09" y1="227.97" x2="306.36" y2="236.01" fill="none" stroke="#002346" stroke-linecap="round" stroke-linejoin="round"></line>
  <line x1="311.35" y1="218.32" x2="311.35" y2="233.12" fill="none" stroke="#002346" stroke-linecap="round" stroke-linejoin="round"></line>
  <line x1="334.03" y1="234.89" x2="315.69" y2="237.46" fill="none" stroke="#002346" stroke-linecap="round" stroke-linejoin="round"></line>
  <line x1="316.66" y1="253.07" x2="312.8" y2="241.48" fill="none" stroke="#002346" stroke-linecap="round" stroke-linejoin="round"></line>
  <rect x="134.23" y="280.44" width="237.05" height="8.78" fill="#ebebeb" stroke="#002346" stroke-miterlimit="10"></rect>
  <path d="M246.95,295.25h7.01v114.33c0,1.94-1.57,3.51-3.51,3.51h0c-1.94,0-3.51-1.57-3.51-3.51v-114.33Z" fill="#ebebeb" stroke="#002346" stroke-miterlimit="10"></path>
  <path d="M167.08,424.34h0c-1.79-.69-2.64-2.63-1.91-4.32,0,0,0-.01,0-.02l55.91-126.79,6.48,2.52-55.92,126.83c-.75,1.68-2.79,2.48-4.57,1.79Z" fill="#ebebeb" stroke="#002346" stroke-miterlimit="10"></path>
  <path d="M104.42,229.16s-14.81,16.52-8.69,34.48c1.26,3.65,1.76,7.52,1.46,11.37-.8,10.05-2.89,28.68-7.81,40.65,0,0-9.06,28.52-14.26,37.38-.32,.52-.15,1.21,.38,1.52,.08,.05,.17,.09,.26,.12,3.6,1.1,13.16,4.45,18.58,10.23,.86,.9,2.28,.93,3.18,.07,.04-.04,.09-.09,.13-.13l16.3-18.1,1.19-125.66s-7.21,5.31-10.72,8.07Z" fill="#fbe493" stroke="#002346" stroke-miterlimit="10"></path>
  <ellipse cx="50.26" cy="386.36" rx="6.69" ry="8.19" fill="#ebebeb" stroke="#002346" stroke-miterlimit="10"></ellipse>
  <path d="M108.68,371.55s1.59,14.32,4.43,21c.97,2.67,1.43,5.51,1.34,8.35l18.72-.16,3.07-29.77s-14.85,2.24-27.56,.58Z" fill="#f2b3c1" stroke="#002346" stroke-miterlimit="10"></path>
  <path d="M114.45,400.9s.5,12-1.51,17.22c0,0-1.84,5-.5,7l57.41,.81c.88,.01,1.38-1.03,.8-1.68-1.46-1.63-5.08-3.87-14.03-4.12-1.5-.04-2.98-.34-4.37-.89-4.42-1.75-13.34-6.58-19.07-18.52l-18.72,.18Z" fill="#f69074" stroke="#002346" stroke-miterlimit="10"></path>
  <rect x="112.44" y="425.14" width="58.34" height="3.51" fill="#fff" stroke="#002346" stroke-miterlimit="10"></rect>
  <line x1="201.6" y1="200.29" x2="201.07" y2="186.84" fill="none" stroke="#002346" stroke-linecap="round" stroke-linejoin="round"></line>
  <rect x="215.97" y="286.36" width="70.09" height="10.95" fill="#fff" stroke="#002346" stroke-miterlimit="10"></rect>
  <circle cx="200.44" cy="207.07" r="6.77" fill="#ebebeb" stroke="#002346" stroke-miterlimit="10"></circle>
  <circle cx="169.7" cy="193.7" r="6.77" fill="#ebebeb" stroke="#002346" stroke-miterlimit="10"></circle>
  <line x1="205.26" y1="165.66" x2="201.94" y2="183.18" fill="none" stroke="#002346" stroke-linecap="round" stroke-linejoin="round"></line>
  <line x1="224.58" y1="183.16" x2="204.98" y2="182.69" fill="none" stroke="#002346" stroke-linecap="round" stroke-linejoin="round"></line>
  <line x1="176.93" y1="191.47" x2="197.94" y2="183.18" fill="none" stroke="#002346" stroke-linecap="round" stroke-linejoin="round"></line>
  <path d="M106.93,373.32s-1-37.1,2.5-52.65c0,0,5-37.11-1-54.15,0,0-14.39-20.2,5.16-41.76,0,0,16.9-9.39,32.2-6.38,0,0,11.15,6.87,14.83,44,.37,5.46-.01,10.95-1.13,16.31-1.01,4.54-1.76,9.13-2.26,13.76l-9.19,78.89s-21.06,5.99-41.11,1.98Z" fill="#fbe493" stroke="#002346" stroke-miterlimit="10"></path>
  <path d="M98.65,176.25s-4.53-4.35-11.4,.44c-2.63,1.88-4.7,4.43-6,7.39-3.4,7.54-11.55,30.05,.89,33.01,0,0,8,2,12.47,1.29l-.25-33.35s.53-8.02,4.29-8.78Z" fill="#f69074" stroke="#002346" stroke-miterlimit="10"></path>
  <path d="M139.14,172.09s8,0,12,4c0,0,12,11,18.22,22.98l1.44,3.42c.36,.85,.26,1.82-.26,2.58-2.12,3.1-7.9,10.9-12.72,11.3,0,0-6-1.5-9-6.52-.06,0-1.4-26.47-9.68-37.76Z" fill="#f69074" stroke="#002346" stroke-miterlimit="10"></path>
  <path d="M122.41,160.73v9.66h-12.05v-16.17l.36-.18c1.55,6.09,5.67,6.77,10.52,6.77,.39,0,.78-.02,1.17-.08Z" fill="#f2b3c1" stroke="#002346" stroke-miterlimit="10"></path>
  <rect x="109.64" y="132.59" width="23" height="32" rx="11.5" ry="11.5" fill="#f2b3c1" stroke="#002346" stroke-miterlimit="10"></rect>
  <path d="M128.38,172.09c-.67,0-1.21-.49-1.32-1.15-.25-1.56-1.24-4.14-5.1-3.96l-11.53-.5s-5.27,0-5,6c0,0-11,1.76-11,13.79v38.36s-.59,6.16,6.85,5.22c1.65-.21,3.23-.77,4.71-1.53,5.63-2.9,25.25-12.35,38.19-10.28,1.84,.29,3.65-.77,4.18-2.55,.38-1.26,.59-3.06,.44-5.65,0,0,.5-25.59-5.53-35.8-1.53-2.56-5.16-2.04-8.14-1.95h-6.76Z" fill="#f69074" stroke="#002346" stroke-miterlimit="10"></path>
  <circle cx="311.35" cy="237.46" r="5.57" fill="#ebebeb" stroke="#002346" stroke-miterlimit="10"></circle>
  <polygon points="210.84 439.44 176.74 558.45 186.77 558.45 220.2 440.78 210.84 439.44" fill="#fff" stroke="#002346" stroke-miterlimit="10"></polygon>
  <polygon points="243.74 440.78 277.14 559.09 287.14 559.09 253.1 439.44 243.74 440.78" fill="#fff" stroke="#002346" stroke-miterlimit="10"></polygon>
  <polygon points="477.82 262.53 477.88 280.1 514.44 277.41 512.28 243.01 503.68 238.18 477.82 262.53" fill="#f2b3c1" stroke="#002346" stroke-miterlimit="10"></polygon>
  <polygon points="683.14 529.55 683.14 561.09 693.62 561.09 693.62 530.42 683.14 529.55" fill="#fff" stroke="#002346" stroke-miterlimit="10"></polygon>
  <path d="M576.14,498.09l19.03,63h30.2l-1.29-28.11,33.68-.43s22.58-5.32,22.76-24.28c0,0-20.6-22.06-25-26.41-.04,.03-34.9,29.62-79.38,16.23Z" fill="#fbe493" stroke="#002346" stroke-miterlimit="10"></path>
  <path d="M606.15,443.45l-41.82,4.94c-18.97,2.22-32.6,19.33-30.51,38.31,1.78,15.92,6.85,40.33,19.32,73.39l42,1-16-59s40.61,19.98,76.34-20.2c0,0-18.72-20.79-49.33-38.44Z" fill="#fbe493" stroke="#002346" stroke-miterlimit="10"></path>
  <path d="M584.99,182.55c-1.67-.13-6.48-.86-5.18-5.19,0,0,2.52-3.9,14.18-1.27l9.4,3.51,.38,8.15-18.81,.5c-1.1,.3-2.27-.07-3-.95-.71-1.15-.38-2.67,.76-3.41,.7-.47,1.46-.85,2.25-1.13,.06-.01,.1-.07,.09-.13,0-.04-.03-.07-.07-.08Z" fill="#f2b3c1" stroke="#002346" stroke-miterlimit="10"></path>
  <path d="M611.96,213.69l30.81,54.26c1.24,2.18,3.5,3.58,6.01,3.73l24.6,1.38c-10.79,6.97-10.51,17.48-13.24,30.03,0,0-17.01-1.7-25.7-4.37-12.39-3.81-20.46-9.64-22.74-22.4l-17.58-66s-4.84-10.56-3.81-18.91c.15-1.1-.12-2.22-.74-3.14-2.54-3.73-8.6-13.25-5-14.06,0,0,2.84-3.17,12.37,11.37,.97,1.29,2.8,1.54,4.09,.57,.03-.02,.06-.05,.09-.07,0,0,3-2.51-2.85-7,0,0-16.54-10.36-13.37-13.37,0,0,1.84-5.35,17.55,7.52,0,0,9.53,4.68,9.36,23.23l-.6,14.27c-.02,1.04,.24,2.06,.75,2.96Z" fill="#f2b3c1" stroke="#002346" stroke-miterlimit="10"></path>
  <path d="M703.27,275.92l-30.43-4.21c-10.81,8.36-18.23,20.35-20.89,33.76-.19,.99,.46,1.94,1.45,2.13,.22,.04,.44,.04,.66,0l22.39,3.17s14.24-29.73,27.7-30.82l-.88-4.03Z" fill="#f69074" stroke="#002346" stroke-miterlimit="10"></path>
  <path d="M700.76,270.95l2.5,8.86s22.23-5.85,31.6-4.18l-8.7-15.88-12.87-8s-2.88,14.73-12.53,19.2Z" fill="#f2b3c1" stroke="#002346" stroke-miterlimit="10"></path>
  <path d="M606.15,443.45s56.83-159.29,97.11-163.64c0,0,40.79-14.87,60.34,7.69,0,0,23.07,17.05,28.09,61.18l-94.44,179s-53.16-64.13-91.1-84.23Z" fill="#f69074" stroke="#002346" stroke-miterlimit="10"></path>
  <path d="M630.83,371.08l-9.41,20.36c-1.15,2.55-3.51,4.34-6.27,4.76l-36.17,5.54-3.83,22.93,38.43,6.35c2.73,.29,5.47-.42,7.72-2l39.21-26.47s-21.75-11.31-29.68-31.47Z" fill="#f2b3c1" stroke="#002346" stroke-miterlimit="10"></path>
  <path d="M399.42,444.02l-63,7.91c-18.97,2.22-32.59,19.33-30.5,38.31,1.78,15.92,5.75,35.78,18.22,68.85l62,1-13.38-56.49s34.07,19.09,69.8-21c0-.05-15.28-21.89-43.14-38.58Z" fill="#f69074" stroke="#002346" stroke-miterlimit="10"></path>
  <path d="M372.76,503.6l12.38,56.49h30l-.19-27.93,35.46-.27s7.24-6.74,9.75-21.78c0,0-12.81-23.75-17.25-28.09-.01,.02-31.15,38.68-70.15,21.58Z" fill="#f69074" stroke="#002346" stroke-miterlimit="10"></path>
  <path d="M715.97,332.13l102.79,.42c3.19,.03,5.76,2.63,5.73,5.83,0,.97-.26,1.93-.73,2.77-5.07,9.09-12.32,25.57-16,50.12l-11.3,47.5c-2.64,11.32-4.59,22.78-5.82,34.34-2.37,21.64-14.12,64.24-70.16,58.59l-49.41,.26s26.48-13.41,21.79-57.33c-1.5-13.29-1.62-26.69-.36-40,3.14-31.68,10.18-84.08,23.47-102.5Z" fill="#fff" stroke="#002346" stroke-miterlimit="10"></path>
  <path d="M575.15,424.67s106.22,14.77,116.25,30.82l1.46,19.14s3.92,26.33-7.51,44.76c-5.36,8.51-14.26,14.15-24.24,15.38-10.76,1.39-31.69,2.24-68.78-2.41l60.17,.75s22.35-.07,28-24.81c0,0,6.53-14.15,2.26-45,0,0,1.75-10.13-23.65-18.49,0,0-23.46-8-84.3-14.65l.34-5.49Z" fill="#ebebeb" stroke="#002346" stroke-miterlimit="10"></path>
  <path d="M730.54,332.15h-4.69s12.85,22.66,19.2,65.79l3.88-.13s-5.69-34.26-18.39-65.66Z" fill="#fbe493" stroke="#002346" stroke-miterlimit="10"></path>
  <path d="M584.12,530.39c1.28,.7,3.47,1,5.52,1.5,2.74,.72,5.6,.9,8.41,.55l9.09,28.65h-12l-11.02-30.7Z" fill="#fff" stroke="#002346" stroke-miterlimit="10"></path>
  <polygon points="778.56 561.88 769.16 561.83 764.57 546.54 773.84 535.97 778.56 561.88" fill="#fff" stroke="#002346" stroke-miterlimit="10"></polygon>
  <path d="M399.42,444.02s44.07,33.86,59.12,64l107.49-136.56s-2.72-42.22-17.68-70.76c-5.07-9.66-13.29-17.33-23.42-21.38-16.26-6.5-44.33-10.74-72.84,17.44,0,0-20.43,113.94-52.67,147.26Z" fill="#fbe493" stroke="#002346" stroke-miterlimit="10"></path>
  <path d="M419.3,385.97l-37.26-13.87-23.47,16.56,60.53,42.58c3.31,2.38,7.2,3.8,11.26,4.12,4,.27,8.51-.56,11.68-4.63l-22.74-44.76Z" fill="#f2b3c1" stroke="#002346" stroke-miterlimit="10"></path>
  <path d="M424.09,375.55s-11.54,3-13,3c-4.35-.06-8.71,.28-13,1l-54.23,12.59-58.29-49.5,3-2.67,56.19,48.8,51.15-12.36s10-7.36,16.38-.67l13.37-5-1.57,4.81Z" fill="#f69074" stroke="#002346" stroke-miterlimit="10"></path>
  <path d="M347.76,377.74l-3,11-56.16-48.8-.66-8.27,59.82,46.07Z" fill="#fff" stroke="#002346" stroke-miterlimit="10"></path>
  <path d="M347.76,377.74s45.12-15.92,48.14-1.33l-51.14,12.36,3-11.03Z" fill="#fff" stroke="#002346" stroke-miterlimit="10"></path>
  <path d="M412.27,375.74s-3.57-3-7.83-2.72l27.84-18.47-6.64,16.16-13.37,5.03Z" fill="#ebebeb" stroke="#002346" stroke-miterlimit="10"></path>
  <path d="M287.91,331.61s1.71-4.88,9.48-6.89l50.15,37.11s49-3.9,57.27,11.15c-3.21,.41-6.27,1.58-8.92,3.43,0,0-1-5.56-16.51-5.06,0,0-12.37-.51-31.63,6.39l-59.84-46.13Z" fill="#ebebeb" stroke="#002346" stroke-miterlimit="10"></path>
  <path d="M292.38,320.71l55.16,41.12s46.84-4.17,56.84,10.53c.09,.14,.27,.18,.41,.09,.06-.04,.1-.1,.13-.16,.6-2,1.47-9.21-10.4-23.66-5.46-6.65-11.68-12.63-18.53-17.83-3.78-3.16-8-6.41-12.56-9.67-4.19-3-8.25-5.6-12.13-7.94-4.93-1.25-10.79-2.26-58.92,7.52Z" fill="#fff" stroke="#002346" stroke-miterlimit="10"></path>
  <path d="M263.83,444.45h-64.52c-1.19,0-2.16-.98-2.15-2.17,0-.27,.05-.53,.15-.78l6.32-16.08c.33-.82,1.12-1.36,2-1.37l58.19-.54c1.2-.01,2.18,.95,2.19,2.15,0,0,0,.01,0,.02v16.6c0,1.2-.97,2.17-2.17,2.17,0,0,0,0-.01,0Z" fill="#ebebeb" stroke="#002346" stroke-miterlimit="10"></path>
  <rect x="677.64" y="210.59" width="38" height="61" rx="19" ry="19" fill="#f2b3c1" stroke="#002346" stroke-miterlimit="10"></rect>
  <path d="M710.9,237.18c-.38-10.21-8.77-7.86-8.77-7.86l-8.86,8c-.3,.27-.76,.24-1.03-.06-.07-.08-.12-.16-.15-.26l-4.75-15.55c-6.26,1.48-9.34-2.08-10.73-7.28-2.55-9.57,6.2-18.07,15.89-16.04,1.18,.25,2.33,.35,3.41,.26,0,.67,10-2,15.88,7,0,0,26.41-6.85,26.91,19.22,0,0,2.84,24.24-12.54,35.1l-22.54-13.88s6.9-.47,7.28-8.65Z" fill="#002346" stroke="#002346" stroke-miterlimit="10"></path>
  <ellipse cx="704.1" cy="237.35" rx="6.47" ry="8.32" fill="#f2b3c1" stroke="#002346" stroke-miterlimit="10"></ellipse>
  <path d="M630.32,369.55c5.58,16.29,18.35,29.11,34.62,34.75,1.42,.49,2.99,0,3.89-1.2,9.32-12.73,58.66-83.53,27.91-116-2.09-2.19-5.3-2.87-8.1-1.72-9.19,3.76-30.45,19.24-58.23,82.62-.22,.49-.25,1.04-.09,1.55Z" fill="#f69074" stroke="#002346" stroke-miterlimit="10"></path>
  <path d="M574.84,430.14s107.3,7.95,107.92,33.14c0,0,11.32,67.65-30.29,69.83l-54.45-.67c-5.93-.08-12.89,.16-17.44-3.64-2.53-2-4.45-4.68-5.53-7.72" fill="none" stroke="#002346" stroke-linecap="round" stroke-linejoin="round"></path>
  <path d="M747.68,396.89c-.43-3.58-3.81-29.27-17.14-64.74l10.18,.08s13,43.69,17.13,62.37c.36,1.62,1.53,2.94,3.1,3.48,9,3.17,39.18,17.19,42.31,51.58l-30.5,92.41s-6.35,12-19.06,5l-64.14-34.42s-14.71-8.69-6.35-23.74l23.4-58.5s11.91-29.45,40.68-33c.24-.02,.42-.24,.4-.48,0-.01,0-.03,0-.04Z" fill="#fbe493" stroke="#002346" stroke-miterlimit="10"></path>
  <path d="M723.99,515.99s-15-5.68-7.69-21.73l17.7-42.9c2.7-6.69,7.05-12.6,12.64-17.16,6.35-5.08,15.52-9.34,27.38-7.11,8.94,1.83,17,6.62,22.87,13.6,5.4,6.25,11.19,15.73,11.56,27.89,.11,5.76-1.01,11.48-3.27,16.78l-19.68,47.35s-3,13.37-17.72,6.68l-43.79-23.4Z" fill="#ebebeb" stroke="#002346" stroke-miterlimit="10"></path>
  <path d="M741.81,468.18l46.73,26.27c1.53,.86,2.23,2.7,1.66,4.36l-10.66,31.16c-.67,1.9-2.75,2.9-4.65,2.23-.18-.06-.36-.14-.53-.23l-47-25.37c-.87-.45-1.24-1.5-.84-2.39l12.72-35.2c.44-.93,1.55-1.32,2.48-.88,.03,.01,.06,.03,.09,.05Z" fill="none" stroke="#002346" stroke-linecap="round" stroke-linejoin="round"></path>
  <path d="M760.32,462.48l25.36,14.93c1.41,.88,3.26,.45,4.13-.96,0-.01,.02-.03,.03-.04,3.3-5.42,9.57-18.53,.6-28.36-1.18-1.25-2.58-2.27-4.13-3-5.57-2.73-19-6.61-27.28,13.69-.54,1.39,0,2.97,1.29,3.74Z" fill="none" stroke="#002346" stroke-linecap="round" stroke-linejoin="round"></path>
  <path d="M689.64,472.79l9.65-24.14c-.59-27.04,1.87-54.07,7.35-80.56,2.57-12.35,5.39-25.3,9.18-35.61,.03-.07-.07-.13-.12-.06-10.6,13.06-18.21,28.28-22.31,44.59-.14,.58-.29,1.14-.43,1.7-3.66,13.93-5.59,28.25-5.77,42.65-.16,17.35,.17,34.69,2.45,51.39" fill="#fff" stroke="#002346" stroke-miterlimit="10"></path>
  <path d="M704.91,434.55s.53-76.02,10.78-101.78c.03-.07-.06-.11-.1-.05-3.13,5.39-24.92,45.12-24.56,104.14l.46,31.59,13.41-33.9Z" fill="#fbe493" stroke="#002346" stroke-miterlimit="10"></path>
  <path d="M483.26,368.78c-9,28.84-31.3,54.34-37.23,60.78-1.02,1.1-2.55,1.55-4,1.18-19-4.57-22.75-44.77-22.75-44.77l13.48-33.25c2.19-5.36,3.36-11.08,3.44-16.87,.11-10.76,2.33-30.06,15.88-39.09,0,0,29-19.89,36,11.28,0,0,8.61,17.74-4.82,60.74Z" fill="#fbe493" stroke="#002346" stroke-miterlimit="10"></path>
  <path d="M355.02,430.82s-18.82,4.28-11.55,28.65l21,59s6.84,12.83,17.1,14.54c0,0-18.38,4.27-28.64-13.69l-20.95-57.71s-9.03-34.64,23.04-30.79Z" fill="#ebebeb" stroke="#002346" stroke-miterlimit="10"></path>
  <rect x="459.64" y="201.59" width="47" height="68" rx="23.5" ry="23.5" fill="#f2b3c1" stroke="#002346" stroke-miterlimit="10"></rect>
  <g>
    <circle cx="109.39" cy="127.09" r="6.29" fill="#002346" stroke="#002346" stroke-miterlimit="10"></circle>
    <circle cx="113.03" cy="130.99" r="4.84" fill="#f69074" stroke="#002346" stroke-miterlimit="10"></circle>
    <path d="M127.89,139.33c-1.38,1.06-4.31,2.64-9.74,2.99,0,0,.26,4.15-5.52,7.26,0,0-4.33,5.41,.94,12.25,0,0-2.4,.49-6.21-.84,0,0-2.43,2.37-6.4,2.11-1.6-.1-3.07-1.08-3.69-2.56-.84-2-1.17-5.61,1.33-11.79,0,0,6.04-21.6,18.8-21.42,0,0,5.89-.83,10.86,1.92,5.02,2.77,6.64,12.18,4.64,16.05h0c-.64-.85-1.23-1.73-1.75-2.65-.49-.87-.94-1.43-1.21-2.57-.04-.15-.1-.29-.18-.42h0c-.42-.63-1.27-.76-1.87-.31Z" fill="#002346" stroke="#002346" stroke-miterlimit="10"></path>
  </g>
  <g>
    <circle cx="509.58" cy="187.42" r="13.28" fill="#002346" stroke="#002346" stroke-miterlimit="10"></circle>
    <circle cx="501.89" cy="195.65" r="10.21" fill="#f69074" stroke="#002346" stroke-miterlimit="10"></circle>
    <path d="M470.53,213.26c2.9,2.23,9.09,5.58,20.55,6.3,0,0-.52,8.21,10.54,14.69,.86,.51,1.54,1.27,1.99,2.16,1.96,3.89,5.9,14.66-2.97,26.18,0,0,5.17-.83,13.21-3.64,0,0,5.14,4.99,13.5,4.46,3.42-.22,6.49-2.27,7.8-5.44,1.76-4.24,2.46-11.84-2.82-24.86,0,0-12.75-45.59-39.67-45.21,0,0-12.43-1.76-22.93,4.04-10.59,5.85-14.02,25.7-9.8,33.87h0c1.41-1.89,2.68-3.86,3.86-5.89,.97-1.67,1.86-2.86,2.4-5.12,.08-.32,.21-.62,.39-.89h0c.88-1.32,2.69-1.61,3.94-.65Z" fill="#002346" stroke="#002346" stroke-miterlimit="10"></path>
  </g>
  <ellipse cx="109.36" cy="149.08" rx="3.53" ry="5.15" fill="#f2b3c1" stroke="#002346" stroke-miterlimit="10"></ellipse>
  <line x1="105.44" y1="172.48" x2="121.14" y2="172.48" fill="none" stroke="#002346" stroke-linecap="round" stroke-linejoin="round"></line>
  <path d="M94.25,288.03s-1.11-3.93-2.11-7.93" fill="none" stroke="#002346" stroke-linecap="round" stroke-linejoin="round"></path>
  <circle cx="317.75" cy="259.34" r="6.92" fill="#ebebeb" stroke="#002346" stroke-miterlimit="10"></circle>
  <circle cx="200.18" cy="182.59" r="4.25" fill="#ebebeb" stroke="#002346" stroke-miterlimit="10"></circle>
  <circle cx="230.56" cy="183.96" r="6.77" fill="#ebebeb" stroke="#002346" stroke-miterlimit="10"></circle>
  <path d="M170.76,204.01l28.92-12.88s6.76-1.78,7.12-11c0,0,1.42-12.45,9.25-13.52l15.08-1.42c.89-.08,1.79,.47,1.96,1.35,.28,1.39-1.4,3.2-12.77,2.57-.14,0-.2,.19-.07,.24,1.97,.8,5.89,2.73,6.47,5.09,0,0,2.14,6.4-3.91,6.4l-4.89-.65c-.24-.03-.46,.14-.48,.38-.24,2.12-1.91,11.49-13.21,18.38,0,0-16.36,14-26.32,17.55,0,0-6,3-18-.91,.05-.04,4.28-2.04,10.86-11.58Z" fill="#f2b3c1" stroke="#002346" stroke-miterlimit="10"></path>
  <line x1="226.14" y1="174.09" x2="219.64" y2="171.59" fill="none" stroke="#002346" stroke-linecap="round" stroke-linejoin="round"></line>
  <line x1="226.98" y1="177.03" x2="219.14" y2="174.09" fill="none" stroke="#002346" stroke-linecap="round" stroke-linejoin="round"></line>
  <line x1="225.98" y1="179.03" x2="219.14" y2="177.09" fill="none" stroke="#002346" stroke-linecap="round" stroke-linejoin="round"></line>
  <circle cx="206.39" cy="159.9" r="6.77" fill="#ebebeb" stroke="#002346" stroke-miterlimit="10"></circle>
  <ellipse cx="510.08" cy="235.2" rx="6.47" ry="8.32" fill="#f2b3c1" stroke="#002346" stroke-miterlimit="10"></ellipse>
  <path d="M602.68,532.39s-20.33-10.92-21.57-30.42c0,0-1.2,13.69-6.55,20.37,0,0,5.72,13.4,28.12,10.05Z" fill="#ebebeb" stroke="#002346" stroke-miterlimit="10"></path>
  <path d="M550.49,532.71c9.4,1.86,18.96-2.27,24.07-10.37,0,0,6-6,8.36-28.41,0,0,5-37.44-10.37-43.46,0,0,.52,16.89,2.66,26.27,.88,3.71,1.36,7.51,1.42,11.32,.06,9.49-1.25,25.22-9.76,33.28,0,0-9.03,9.7-16.38,11.37Z" fill="#ebebeb" stroke="#002346" stroke-miterlimit="10"></path>
  <path d="M604.11,337.13c-5.83,9.72-18.93,36.92-29.45,97.8-.3,1.7-.63,3.38-1,5.07-.77,3.41-1.52,12.59,1,30.4,.26,1.84,.6,3.69,1,5.5,2.15,8.83,8.72,44.89-23.9,56.89l-103-1.09s26-16.3,18.92-67.92c-1.49-10.34-2.15-20.78-1.98-31.23,.65-27.56,12.24-77.18,29.92-102.49l105.94,2.49c1.69,.06,3.01,1.47,2.95,3.16-.02,.5-.16,.98-.4,1.42Z" fill="#fff" stroke="#002346" stroke-miterlimit="10"></path>
  <path d="M406.32,436.81s61.14,5.13,65.42,24.37c0,0,9.4,68.83-24.8,71.83h-11.65s24.05-5.14,26.61-39.35l-.72-25.3c-.14-7.02-3.59-13.57-9.3-17.66-4.21-2.83-8.94-4.8-13.92-5.78,0,0-17.53-5.98-31.64-8.11Z" fill="#ebebeb" stroke="#002346" stroke-miterlimit="10"></path>
  <path d="M350.76,430.82c44-.43,87.22,14.11,87.22,14.11,5.01,.99,9.77,2.98,14,5.85,5.55,4,8.97,10.32,9.29,17.15l1.06,20.62c.35,27.67-16.09,39.67-22.39,43.25-1.42,.8-3.02,1.22-4.65,1.23l-60.18,.41c-16.67-.85-22.23-14.11-22.23-14.11l-17.53-49.16c-9.41-20.53-1.71-31.64-1.71-31.64,0,0,6.41-8.98,17.12-7.71Z" fill="none" stroke="#002346" stroke-linecap="round" stroke-linejoin="round"></path>
  <path d="M718.64,436.59s23.14-49.23,70.57-19.62" fill="none" stroke="#002346" stroke-linecap="round" stroke-linejoin="round"></path>
  <line x1="818.14" y1="562.09" x2="778.56" y2="561.88" fill="none" stroke="#002346" stroke-linecap="round" stroke-linejoin="round"></line>
  <line x1="769.16" y1="561.83" x2="63.14" y2="558.09" fill="none" stroke="#002346" stroke-linecap="round" stroke-linejoin="round"></line>
  <text transform="translate(257.72 174.74)" fill="#002346" font-family="Barlow-Medium, Barlow" font-size="28.12" font-weight="500">
    <tspan x="0" y="0">H2S04</tspan>
  </text>
</svg>
